<?xml version="1.0" standalone="no"?>
<!DOCTYPE svg PUBLIC "-//W3C//DTD SVG 1.1//EN" "http://www.w3.org/Graphics/SVG/1.1/DTD/svg11.dtd" >
<!--
2013-9-30: Created.
-->
<svg>
<metadata>
Created by iconfont
</metadata>
<defs>

<font id="dk-iconfont" horiz-adv-x="1024" >
  <font-face
    font-family="dk-iconfont"
    font-weight="500"
    font-stretch="normal"
    units-per-em="1024"
    ascent="896"
    descent="-128"
  />
    <missing-glyph />
    
    <glyph glyph-name="arrow-double-down" unicode="&#58917;" d="M512 0.512L62.6176 449.8944A35.84 35.84 0 0 1 11.9296 399.36l474.7264-474.7264a35.84 35.84 0 0 1 50.688 0L1012.0704 399.36a35.84 35.84 0 0 1-50.688 50.688zM512 394.24L62.6176 843.52a35.84 35.84 0 0 1-50.688-50.688l474.7264-474.7264a35.84 35.84 0 0 1 50.688 0l474.7264 474.7264a35.84 35.84 0 0 1-50.688 50.688z"  horiz-adv-x="1024" />

    
    <glyph glyph-name="add" unicode="&#58918;" d="M988.16 419.84h-440.32V860.16a35.84 35.84 0 0 1-35.84 35.84 35.84 35.84 0 0 1-35.84-35.84v-440.32H35.84a35.84 35.84 0 0 1-35.84-35.84 35.84 35.84 0 0 1 35.84-35.84h440.32v-440.32a35.84 35.84 0 0 1 35.84-35.84 35.84 35.84 0 0 1 35.84 35.84v440.32h440.32a35.84 35.84 0 0 1 35.84 35.84 35.84 35.84 0 0 1-35.84 35.84z"  horiz-adv-x="1024" />

    
    <glyph glyph-name="about" unicode="&#58919;" d="M512-128a512 512 0 1 0 512 512 512.5632 512.5632 0 0 0-512-512z m0 950.528A438.528 438.528 0 1 1 950.528 384 438.9888 438.9888 0 0 1 512 822.528z m-55.0912-199.68A55.0912 55.0912 0 1 1 512 677.888a55.1424 55.1424 0 0 1-55.0912-55.0912zM512 90.112a36.7104 36.7104 0 0 0-36.7104 36.7616V457.472a36.7104 36.7104 0 0 0 73.4208 0v-330.5984a36.7104 36.7104 0 0 0-36.7104-36.7616z"  horiz-adv-x="1024" />

    
    <glyph glyph-name="all-fill" unicode="&#58920;" d="M479.948827 352.000027v-383.999981A95.948795 95.948795 0 0 0 384.000032-127.999949H96.000046A95.948795 95.948795 0 0 0 0.000051-31.948754V256.000032a95.948795 95.948795 0 0 0 95.999995 95.999995z m447.999978 0A95.999995 95.999995 0 0 0 1024 256.000032v-287.948786A95.999995 95.999995 0 0 0 927.948805-127.999949H640.000019a95.999995 95.999995 0 0 0-95.999995 95.999995v383.999981zM384.000032 896a95.948795 95.948795 0 0 0 95.948795-96.051195v-383.999981h-383.999981A95.948795 95.948795 0 0 0 0.000051 512.000019V799.948805A95.948795 95.948795 0 0 0 96.000046 896z m399.97438 0a239.974388 239.974388 0 1 0 0-479.948776 239.974388 239.974388 0 0 0 0 479.948776z"  horiz-adv-x="1024" />

    
    <glyph glyph-name="arrow-double-right" unicode="&#58921;" d="M895.488 384l-449.3824-449.3824a35.84 35.84 0 0 1 50.688-50.688L971.52 358.4a35.84 35.84 0 0 1 0 50.688L496.64 884.0704a35.84 35.84 0 0 1-50.688-50.688zM501.76 384l-449.28-449.3824a35.84 35.84 0 0 1 50.688-50.688L577.8944 358.4a35.84 35.84 0 0 1 0 50.688L103.168 884.0704a35.84 35.84 0 0 1-50.688-50.688z"  horiz-adv-x="1024" />

    
    <glyph glyph-name="arrow-v-down" unicode="&#58922;" d="M1024 384A512 512 0 1 0 512 896a512.5632 512.5632 0 0 0 512-512z m-950.8352 0A438.8352 438.8352 0 1 1 512 822.8352 439.3472 439.3472 0 0 1 73.1648 384z m452.9664-123.8528h0.4096a36.352 36.352 0 0 1 11.4688 7.5776l182.1184 181.6064A36.5568 36.5568 0 0 1 668.7232 501.76l-156.2112-155.9552-155.3408 157.0304a36.5568 36.5568 0 1 1-51.968-51.2L486.4 268.2368a36.4544 36.4544 0 0 1 39.7312-8.0896z"  horiz-adv-x="1024" />

    
    <glyph glyph-name="arrow-left" unicode="&#58923;" d="M749.3632-126.5664a35.84 35.84 0 0 0-25.6 10.496L249.2928 358.4a35.84 35.84 0 0 0 0 50.688l474.7264 474.9824a35.84 35.84 0 1 0 50.688-50.688L325.3248 384l449.3824-449.3824a35.84 35.84 0 0 0-25.344-61.184z"  horiz-adv-x="1024" />

    
    <glyph glyph-name="alipay" unicode="&#58924;" d="M279.668158 345.382977c-22.626867-2.252448-65.269808-12.183698-88.459787-32.6605-69.672321-60.560144-28.002027-171.339645 113.083142-171.339645 81.90721 0 163.81442 52.215846 228.316348 135.914777-91.480115 44.485854-169.240773 76.378474-252.939703 68.085368zM805.666023 268.850928c114.414134-38.189237 176.765998-49.093134 190.485456-51.192007a511.920064 511.920064 0 1 1-57.488623-116.564198c-86.616875 34.042684-244.083486 97.264812-327.628841 137.245769-79.808338-97.930308-182.909039-157.466612-289.797948-157.466612-181.117319 0-242.291766 157.466612-156.801115 261.642345 18.685082 22.575675 50.577702 44.178701 99.77322 56.311207 77.095162 18.787466 199.904785-11.825353 314.933223-49.605054a620.549501 620.549501 0 0 1 51.192007 124.396575H275.777565v35.834405h182.653079V573.750518H237.076409V609.27777h221.354235V701.065037A15.357602 15.357602 0 0 0 473.071558 716.780983h90.507467v-107.503213h218.948212v-35.834404h-218.89702v-63.887624H742.495088a732.045691 732.045691 0 0 0-75.76417-190.536648c54.058759-19.504154 102.742357-38.035661 138.935105-50.168166z"  horiz-adv-x="1024" />

    
    <glyph glyph-name="arrow-double-up" unicode="&#58925;" d="M512 767.488l449.3824-449.3824a35.84 35.84 0 1 1 50.688 50.688L537.6 843.52a35.84 35.84 0 0 1-50.688 0L11.9296 368.64a35.84 35.84 0 0 1 50.688-50.688zM512 373.76l449.3824-449.3824a35.84 35.84 0 1 1 50.688 50.688L537.6 449.8944a35.84 35.84 0 0 1-50.688 0L11.9296-24.832a35.84 35.84 0 1 1 50.688-50.688z"  horiz-adv-x="1024" />

    
    <glyph glyph-name="arrow-down" unicode="&#58926;" d="M1022.5664 621.3632a35.84 35.84 0 0 0-10.496-25.6L537.6 121.2928a35.84 35.84 0 0 0-50.688 0L11.9296 596.0192a35.84 35.84 0 0 0 50.688 50.688L512 197.3248l449.3824 449.3824a35.84 35.84 0 0 0 61.184-25.6z"  horiz-adv-x="1024" />

    
    <glyph glyph-name="arrow-up" unicode="&#58927;" d="M1.4336 146.6368a35.84 35.84 0 0 0 10.496 25.6l474.7264 474.4704a35.84 35.84 0 0 0 50.688 0l474.7264-474.7264a35.84 35.84 0 1 0-50.688-50.688L512 570.6752l-449.3824-449.3824a35.84 35.84 0 0 0-61.44 25.344z"  horiz-adv-x="1024" />

    
    <glyph glyph-name="arrow-v-left" unicode="&#58928;" d="M512-128a512 512 0 1 0 512 512 512.5632 512.5632 0 0 0-512-512z m0 950.8352A438.8352 438.8352 0 1 1 950.8352 384 439.3472 439.3472 0 0 1 512 822.8352z m-123.8528-452.9664v-0.4096a36.352 36.352 0 0 1 7.5776-11.4688l181.6064-182.1184A36.5568 36.5568 0 0 1 629.76 227.2768L473.8048 383.488l157.0304 155.3408a36.5568 36.5568 0 1 1-51.2 51.968L396.2368 409.6a36.4544 36.4544 0 0 1-8.0896-39.7312z"  horiz-adv-x="1024" />

    
    <glyph glyph-name="about-fill" unicode="&#58929;" d="M512 896a512 512 0 1 1 512-512A512.5632 512.5632 0 0 1 512 896z m36.7104-769.1264a36.7104 36.7104 0 1 0-73.4208 0V457.472a36.7104 36.7104 0 0 0 73.4208 0zM512 567.6544a55.1424 55.1424 0 1 0 55.0912 55.1424A55.1424 55.1424 0 0 0 512 567.6544z"  horiz-adv-x="1024" />

    
    <glyph glyph-name="all" unicode="&#58930;" d="M784.025612 824.320004a168.294392 168.294392 0 1 0-168.396792-168.294392A168.499192 168.499192 0 0 0 784.025612 824.320004M384.000032 824.320004a24.319999 24.319999 0 0 0 24.319999-24.319999v-312.319985h-312.319985A24.319999 24.319999 0 0 0 71.680048 512.000019V799.948805A24.319999 24.319999 0 0 0 96.000046 824.320004H384.000032m543.948773-543.999973A24.319999 24.319999 0 0 0 952.320004 256.000032v-287.948786a24.319999 24.319999 0 0 0-24.319999-24.319998H640.000019a24.319999 24.319999 0 0 0-24.319999 24.319998v312.319985h312.319985m-519.679974 0v-312.319985A24.319999 24.319999 0 0 0 384.000032-56.319952H96.000046a24.319999 24.319999 0 0 0-24.319998 24.371198V256.000032a24.319999 24.319999 0 0 0 24.319998 24.319999h312.319985M784.025612 896a239.974388 239.974388 0 0 1 0-479.948776 239.974388 239.974388 0 0 1 0 479.948776zM384.000032 896H96.000046A95.948795 95.948795 0 0 1 0.000051 799.948805V512.000019a95.948795 95.948795 0 0 1 95.999995-95.999995h383.999981v383.999981A95.948795 95.948795 0 0 1 384.000032 896z m543.948773-543.999973h-383.999981v-383.999981A95.999995 95.999995 0 0 1 640.000019-127.999949h287.999986A95.999995 95.999995 0 0 1 1024-31.948754V256.000032a95.999995 95.999995 0 0 1-95.999995 95.999995z m-447.999978 0h-383.999981A95.948795 95.948795 0 0 1 0.000051 256.000032v-287.948786A95.948795 95.948795 0 0 1 96.000046-127.999949H384.000032a95.948795 95.948795 0 0 1 95.999995 95.999995v383.999981z"  horiz-adv-x="1024" />

    
    <glyph glyph-name="arrow-vv-down" unicode="&#58931;" d="M63.2832 673.2288c-52.224 0-85.6064-69.7344-45.6192-109.7216l449.3824-449.3824a61.9008 61.9008 0 0 1 89.9072 0l449.4336 449.3824c38.9632 39.0144 8.5504 109.7216-44.9536 109.7216z"  horiz-adv-x="1024" />

    
    <glyph glyph-name="arrow-double-left" unicode="&#58932;" d="M128.512 384l449.3824 449.3824a35.84 35.84 0 0 1-50.688 50.688L52.48 409.344a35.84 35.84 0 0 1 0-50.688L527.36-116.0704a35.84 35.84 0 1 1 50.688 50.688zM522.24 384l449.3824 449.3824a35.84 35.84 0 1 1-50.688 50.688L446.1056 409.344a35.84 35.84 0 0 1 0-50.688l474.7264-474.7264a35.84 35.84 0 1 1 50.688 50.688z"  horiz-adv-x="1024" />

    
    <glyph glyph-name="arrow-vv-left" unicode="&#58933;" d="M800.794785 831.278067c0 52.145633-69.629757 85.477939-109.556953 45.550744L242.529773 428.069629a61.756789 61.756789 0 0 1 0-89.721162l448.708059-448.759183c38.955855-38.904732 109.556952-8.537569 109.556953 44.886143V831.278067z"  horiz-adv-x="1024" />

    
    <glyph glyph-name="arrow-vv-right" unicode="&#58934;" d="M222.772024-64.71698c0-52.223851 69.734201-85.606156 109.721288-45.61907l449.381119 449.381119a61.900624 61.900624 0 0 1 0 89.906944L332.493312 878.384332c-39.014289 38.963089-109.721287 8.550376-109.721288-44.953472v-898.14784z"  horiz-adv-x="1024" />

    
    <glyph glyph-name="arrow-vvv-left" unicode="&#58935;" d="M1024.939571 380.416a34.816 34.816 0 0 1-34.816 34.8672H108.049971l410.5728 410.5216a33.4336 33.4336 0 0 1-47.2576 47.2576L8.670771 410.5728a33.4336 33.4336 0 0 1 0-47.2064l435.2-435.2a33.3824 33.3824 0 0 1 47.2576 47.2064l-370.176 370.2272h869.1712a34.7648 34.7648 0 0 1 34.816 34.816z"  horiz-adv-x="1024" />

    
    <glyph glyph-name="arrow-v-up" unicode="&#58936;" d="M0 384a512 512 0 1 0 512-512A512.5632 512.5632 0 0 0 0 384z m950.8352 0A438.8352 438.8352 0 1 1 512-54.8352 439.3472 439.3472 0 0 1 950.8352 384zM497.8688 507.8528h-0.4096a36.352 36.352 0 0 1-11.4688-7.5776l-182.3232-182.016A36.5568 36.5568 0 1 1 355.2768 266.24L511.488 422.1952l155.3408-157.0304a36.5568 36.5568 0 1 1 51.968 51.2L537.6 499.7632a36.4544 36.4544 0 0 1-39.7312 8.0896z"  horiz-adv-x="1024" />

    
    <glyph glyph-name="arrow-vvv-right" unicode="&#58937;" d="M0.000358 386.9696a34.8672 34.8672 0 0 1 34.8672-34.8672h882.2272l-410.5216-410.5216a33.3824 33.3824 0 0 1 47.2064-47.2576l462.336 462.4896a33.3824 33.3824 0 0 1 0 47.2576l-435.2 435.2a33.4336 33.4336 0 1 1-47.2576-47.2576l370.0736-370.0224H34.867558a34.8672 34.8672 0 0 1-34.8672-35.0208z"  horiz-adv-x="1041" />

    
    <glyph glyph-name="arrow-vvv-down" unicode="&#58938;" d="M500.702822 895.999387a34.747169 34.747169 0 0 1-34.798268-34.74717V-19.077537L56.194549 390.479172a33.367502 33.367502 0 0 1-47.164173-47.164173l461.575266-461.575265a33.418601 33.418601 0 0 1 47.164172 0l434.339617 434.339616a33.367502 33.367502 0 0 1-47.164173 47.164173l-369.290871-369.290872V861.252217a34.747169 34.747169 0 0 1-34.951565 34.74717z"  horiz-adv-x="1025" />

    
    <glyph glyph-name="arrow-right" unicode="&#58939;" d="M274.6368 894.5664a35.84 35.84 0 0 0 25.6-10.496l474.7264-474.7264a35.84 35.84 0 0 0 0-50.688l-474.9824-474.7264a35.84 35.84 0 0 0-50.688 50.688L698.6752 384 249.2928 833.3824a35.84 35.84 0 0 0 25.6 61.44z"  horiz-adv-x="1024" />

    
    <glyph glyph-name="arrow-v-right" unicode="&#58940;" d="M512 896A512 512 0 1 0 0 384 512.5632 512.5632 0 0 0 512 896z m0-950.8352A438.8352 438.8352 0 1 1 73.1648 384 439.3472 439.3472 0 0 1 512-54.8352z m123.8528 452.9664v0.4096a36.352 36.352 0 0 1-7.5776 11.4688L446.2592 592.3328A36.5568 36.5568 0 0 1 394.24 540.7232l155.9552-156.2112-157.0304-155.3408a36.5568 36.5568 0 1 1 51.2-51.968L627.7632 358.4a36.4544 36.4544 0 0 1 8.0896 39.7312z"  horiz-adv-x="1024" />

    
    <glyph glyph-name="cart-add-fill" unicode="&#58941;" d="M222.924655-54.835248a73.164752 73.062353 90 1 1 146.124705 0 73.164752 73.062353 90 1 1-146.124705 0ZM803.890677-54.835248a73.164752 73.062353 90 1 1 146.124705 0 73.164752 73.062353 90 1 1-146.124705 0ZM1001.164149 643.634698a91.85274 91.85274 0 0 1-73.062352 32.921579H210.380663l-24.012784 127.999917A106.700731 106.700731 0 0 1 80.383948 895.999334H36.556776a36.607976 36.607976 0 0 1 0-73.164752h43.827172A34.611178 34.611178 0 0 0 113.254326 793.599401l32.921579-179.199884L204.799867 190.156593c7.321595-54.835164 51.199967-98.713536 102.399933-98.713536h555.110039c51.199967 0 95.027138 36.556776 102.399934 84.121546L1023.077735 563.199551a104.550332 104.550332 0 0 1-21.913586 80.435147z m-290.150211-286.719813h-82.739146v-82.739146a26.879983 26.879983 0 0 0-53.759965 0v82.943946H491.519681a26.879983 26.879983 0 0 0 0 53.759965h82.790346V493.618796a26.879983 26.879983 0 0 0 53.759965 0v-82.739146h82.739146a26.879983 26.879983 0 0 0 0-53.759965z"  horiz-adv-x="1024" />

    
    <glyph glyph-name="close" unicode="&#58942;" d="M558.08 388.864l432.0256 432.0256a35.84 35.84 0 0 1-50.688 50.688L507.136 439.552 75.1104 871.5776a35.84 35.84 0 0 1-50.688-50.688l432.0256-432.0256-432.0256-432.0256a35.84 35.84 0 0 1 50.688-50.688L507.136 337.92l432.0256-432.0256a35.84 35.84 0 0 1 50.688 50.688z"  horiz-adv-x="1024" />

    
    <glyph glyph-name="cart" unicode="&#58943;" d="M1001.163949 643.634544a91.852722 91.852722 0 0 1-73.062338 32.921572h-599.039491A34.508771 34.508771 0 0 1 292.300552 639.999347a34.508771 34.508771 0 0 1 36.556768-36.556769h599.039491a27.955176 27.955176 0 0 0 18.227185-7.321594 20.479983 20.479983 0 0 0 3.686397-21.964781l-54.835154-383.999673c0-10.956791-14.591988-21.913581-29.235175-21.913582H310.578936c-14.591988 0-29.235175 18.278384-29.235175 32.921572L219.238214 625.35616l-32.870372 179.199847A106.649509 106.649509 0 0 1 80.383932 895.99913H36.556769a36.607969 36.607969 0 0 1 0-73.164738h43.827163A34.611171 34.611171 0 0 0 113.254304 793.599217l32.921572-179.199848L204.799826 190.15653c7.321594-54.835153 51.199956-98.713516 102.399913-98.713517h555.109928c51.199956 0 95.027119 36.556769 102.399913 84.121529L1023.07753 563.199412a104.550311 104.550311 0 0 1-21.913581 80.435132zM222.924611-54.835262a73.164738 73.062338 90 1 1 146.124675 0 73.164738 73.062338 90 1 1-146.124675 0ZM803.890517-54.835262a73.164738 73.062338 90 1 1 146.124675 0 73.164738 73.062338 90 1 1-146.124675 0ZM781.823335 348.876395a35.12317 35.12317 0 0 1 0 70.24634H372.582083a35.12317 35.12317 0 0 1 0-70.24634z"  horiz-adv-x="1024" />

    
    <glyph glyph-name="cart-add" unicode="&#58944;" d="M1001.164149 643.634698a91.85274 91.85274 0 0 1-73.062352 32.921579h-599.039611A34.508778 34.508778 0 0 1 292.30061 639.999501a34.508778 34.508778 0 0 1 36.556776-36.556776h599.039611a27.955182 27.955182 0 0 0 18.227188-7.321596 20.479987 20.479987 0 0 0 3.686398-21.964785l-54.835165-383.999751c0-10.956793-14.591991-21.913586-29.235181-21.913586H310.578998c-14.591991 0-29.235181 18.278388-29.235181 32.921579L219.238257 625.35631l-32.870378 179.199884A106.700731 106.700731 0 0 1 80.383948 895.999334H36.556776a36.607976 36.607976 0 0 1 0-73.164752h43.827172A34.611178 34.611178 0 0 0 113.254326 793.599401l32.921579-179.199884L204.799867 190.156593c7.321595-54.835164 51.199967-98.713536 102.399933-98.713536h555.110039c51.199967 0 95.027138 36.556776 102.399934 84.121546L1023.077735 563.199551a104.550332 104.550332 0 0 1-21.913586 80.435147zM222.924655-54.835248a73.164752 73.062353 90 1 1 146.124705 0 73.164752 73.062353 90 1 1-146.124705 0ZM803.890677-54.835248a73.164752 73.062353 90 1 1 146.124705 0 73.164752 73.062353 90 1 1-146.124705 0ZM708.45394 410.87965h-82.739147V493.618796a26.931182 26.931182 0 0 1-53.811165 0v-82.739146H489.164482a26.879983 26.879983 0 0 1 0-53.759965h82.739146v-82.739147a26.931182 26.931182 0 0 1 53.811165 0v82.739147h82.739147a26.879983 26.879983 0 0 1 0 53.759965z"  horiz-adv-x="1024" />

    
    <glyph glyph-name="cart-fill" unicode="&#58945;" d="M222.924454-54.835313a73.164687 73.062287 90 1 1 146.124574 0 73.164687 73.062287 90 1 1-146.124574 0ZM803.889954-54.835313a73.164687 73.062287 90 1 1 146.124573 0 73.164687 73.062287 90 1 1-146.124573 0ZM1001.163248 643.634004a91.852658 91.852658 0 0 1-73.062287 32.921549H209.919675l-23.398364 127.999802A106.649435 106.649435 0 0 1 80.383875 895.998413H36.556743a36.607943 36.607943 0 0 1 0-73.164687h43.827132A34.611146 34.611146 0 0 0 113.254224 793.598572l32.921549-179.199723L204.799683 190.156307c7.321589-54.835115 51.199921-98.713447 102.399841-98.713447h555.109539c51.199921 0 95.027053 36.556743 102.399842 84.121469L1023.076814 563.198929a104.550238 104.550238 0 0 1-21.913566 80.435075z m-219.34046-294.757943H372.581822a35.123146 35.123146 0 0 0 0 70.246291h409.240966a35.123146 35.123146 0 0 0 0-70.246291z"  horiz-adv-x="1024" />

    
    <glyph glyph-name="arrow-vvv-up" unicode="&#58946;" d="M491.561233-128a34.797001 34.797001 0 0 1 34.797001 34.797001V787.247979L936.104412 377.552898a33.31519 33.31519 0 0 1 47.315745 47.315745L521.861705 886.222707a33.264093 33.264093 0 0 1-47.111358 0l-434.323795-434.323795a33.366287 33.366287 0 0 1 47.469036-47.009164l369.124129 369.27742v-867.370167A34.745904 34.745904 0 0 1 491.561233-128z"  horiz-adv-x="1024" />

    
    <glyph glyph-name="arrow-vv-up" unicode="&#58947;" d="M960.719718 94.7712c52.224 0 85.6064 69.7344 45.6192 109.7216l-449.3824 449.3824a61.9008 61.9008 0 0 1-89.9072 0L17.615718 204.4928c-38.9632-39.0144-8.5504-109.7216 44.9536-109.7216z"  horiz-adv-x="1024" />

    
    <glyph glyph-name="clock" unicode="&#58948;" d="M512 896a512 512 0 1 1 512-512A512.5632 512.5632 0 0 1 512 896z m0-950.528A438.528 438.528 0 1 0 950.528 384 439.04 439.04 0 0 0 512-54.528zM694.8352 384H512V640a36.608 36.608 0 1 1-73.1648 0v-292.5056a36.5056 36.5056 0 0 1 36.608-36.608h219.392a36.608 36.608 0 1 1 0 73.1648z"  horiz-adv-x="1024" />

    
    <glyph glyph-name="facebook" unicode="&#58949;" d="M512 896a512 512 0 1 1 512-512A512 512 0 0 1 512 896z m141.0048-313.1904H578.56c-12.1856 0-29.3376-6.144-29.3376-32.0512V481.28h103.7312l-12.288-117.76h-91.3408v-334.6944h-138.24V364.032H345.088v117.76h65.8432V557.7216c0 54.4256 25.6 139.7248 139.6736 139.7248l102.4-0.4608z"  horiz-adv-x="1024" />

    
    <glyph glyph-name="delete-fill" unicode="&#58950;" d="M987.4432 713.1648h-182.8864V786.2784A109.3632 109.3632 0 0 1 695.7056 896H329.1648a109.824 109.824 0 0 1-109.7216-109.7216v-73.1136H36.5568a36.608 36.608 0 0 1 0-73.1648h950.8864a36.608 36.608 0 0 1 0 73.1648zM841.1648 566.8352H182.9376a36.8128 36.8128 0 0 1-25.9072-10.24 36.1472 36.1472 0 0 1-10.752-25.6v-549.2736A109.8752 109.8752 0 0 1 256-128h512a109.7216 109.7216 0 0 1 109.568 109.7216V530.2784a36.608 36.608 0 0 1-36.4032 36.5568z m-402.3296-512a36.5568 36.5568 0 0 0-73.1136 0V457.1648a36.5568 36.5568 0 0 0 73.1136 0z m219.4432 0a36.5568 36.5568 0 0 0-73.1136 0V457.1648a36.5568 36.5568 0 1 0 73.1136 0z"  horiz-adv-x="1024" />

    
    <glyph glyph-name="editor" unicode="&#58951;" d="M838.656 18.432a10.24 10.24 0 0 0-10.24-10.24H81.92a10.24 10.24 0 0 0-10.24 10.24V721.92a10.24 10.24 0 0 0 10.24 10.24h629.248V803.84H81.92A81.92 81.92 0 0 1 0 721.92v-703.488a81.92 81.92 0 0 1 81.92-81.92h746.496a81.92 81.92 0 0 1 81.92 81.92V384h-71.68zM508.16 261.0688l50.9952 0.3072L1024 726.2208l-50.688 50.688-464.8448-464.8448-0.3072-50.9952z"  horiz-adv-x="1024" />

    
    <glyph glyph-name="date-fill" unicode="&#58952;" d="M1022.742199 476.434061l-3.617826-509.553a95.541187 95.541187 0 0 0-96.203607-94.878768L94.999053-122.035937A95.490232 95.490232 0 0 0 0.018374-25.832331l3.668782 509.552999zM351.966631 194.600297L192.731319 195.466537 191.814123 100.180126l159.235312-1.121017z m238.827491-1.73248l-159.235313 1.171971-0.662419-95.388321 159.235313-1.171972z m238.82749-1.681525l-159.235312 1.121016-0.662419-95.541187 159.235312-1.121017zM353.291469 385.682671l-159.235313 1.121017-0.662418-95.541187 159.235312-1.121017z m238.878446-1.73248l-159.235313 1.121017-0.713374-95.541188 159.235312-1.121016z m238.82749-1.681525l-159.235312 1.121017-0.662419-95.541187 159.235312-1.121017zM101.725153 833.324981l95.541187-0.917195-1.121016-158.980536 206.980428-1.477704 1.121017 159.235313 238.878446-1.732481-1.171972-159.235312 207.031383-1.477704 1.121017 159.235313 79.643134-0.560509a95.490232 95.490232 0 0 0 94.827813-96.203606l-1.121017-159.235312-1019.105998 7.286608 1.171972 159.235312a95.490232 95.490232 0 0 0 96.203606 94.827813zM793.443349 892.076442l-1.121016-159.235312-95.541188 0.713374 1.121017 159.235312zM343.813783 895.286626l-1.121017-159.235312-95.541187 0.713374 1.121017 159.235312z"  horiz-adv-x="1029" />

    
    <glyph glyph-name="delete" unicode="&#58953;" d="M621.7216 91.4432a36.5056 36.5056 0 0 0-36.5568 36.5568V530.2784a36.5568 36.5568 0 1 0 73.1136 0V128a36.5056 36.5056 0 0 0-36.5568-36.5568zM402.2784 91.4432a36.5056 36.5056 0 0 0-36.5568 36.5568V530.2784a36.5568 36.5568 0 0 0 73.1136 0V128a36.5056 36.5056 0 0 0-36.5568-36.5568zM987.4432 713.1648h-182.8864V786.2784A109.3632 109.3632 0 0 1 695.7056 896H329.1648a109.824 109.824 0 0 1-109.7216-109.7216v-73.1136H36.5568a36.608 36.608 0 0 1 0-73.1648h950.8864a36.608 36.608 0 0 1 0 73.1648zM292.5568 786.2784a36.608 36.608 0 0 0 36.608 36.5568h366.5408a35.84 35.84 0 0 0 35.84-36.5568v-73.1136H292.5568zM768-128H256a109.824 109.824 0 0 0-109.6704 109.7216V530.8416a36.5568 36.5568 0 0 0 73.1136 0v-549.12a36.608 36.608 0 0 1 36.5568-36.5568h512a36.5568 36.5568 0 0 1 36.5568 36.5568v547.84a36.608 36.608 0 0 0 73.1648 0v-547.84A109.8752 109.8752 0 0 0 768-128z"  horiz-adv-x="1024" />

    
    <glyph glyph-name="download" unicode="&#58954;" d="M917.1968 636.4672h-111.872v-65.6896h111.872a21.9136 21.9136 0 0 0 21.9136-21.9136v-589.2608a21.9136 21.9136 0 0 0-21.9136-21.9136H106.8032a21.9136 21.9136 0 0 0-21.9136 21.9136V548.864a21.9136 21.9136 0 0 0 21.9136 21.9136h111.872V636.4672H106.8032A87.6032 87.6032 0 0 1 19.1488 548.864v-589.2608A87.6032 87.6032 0 0 1 106.8032-128h810.3936a87.6032 87.6032 0 0 1 87.6544 87.6032V548.864a87.6032 87.6032 0 0 1-87.6544 87.6032zM730.2656 448.256a32.768 32.768 0 0 1-46.4384 0l-137.6256-137.5744V896H477.7984v-594.432L331.0592 448.256a32.8192 32.8192 0 0 1-46.4384-46.4384l199.68-199.68a32.8704 32.8704 0 0 1 46.4896 0l199.68 199.68a32.768 32.768 0 0 1-0.2048 46.4384z"  horiz-adv-x="1024" />

    
    <glyph glyph-name="favorite" unicode="&#58955;" d="M747.0592 764.1088a200.0896 200.0896 0 0 0 140.032-56.7808c1.4848-1.4336 2.9184-2.8672 4.3008-4.352a216.1152 216.1152 0 0 0 3.1232-296.5504l-382.7712-373.76-382.7712 373.76a216.2176 216.2176 0 0 0 3.1232 296.6016 201.1648 201.1648 0 0 0 284.5184 4.352l4.3008-4.352L442.5216 680.96h0.6144l19.1488-18.5344L512 614.4l49.7664 48.2304 13.0048 12.5952c10.6496 10.24 19.9168 19.6096 27.6992 27.5456a199.68 199.68 0 0 0 144.4352 61.1328m0 71.68A272.1792 272.1792 0 0 1 551.168 752.64c-7.2192-7.3728-15.9744-16.0768-26.2144-26.0096L512 714.2912c-11.4176 11.008-21.3504 20.48-29.7984 29.1328L472.832 752.64q-2.9184 3.0208-5.8368 5.8368A272.8448 272.8448 0 0 1 81.1008 752.64a287.3344 287.3344 0 0 1-2.9696-397.0048l433.8688-423.424 433.8688 423.7312a287.1808 287.1808 0 0 1-3.0208 396.6976q-2.8672 3.0208-5.8368 5.8368a271.7696 271.7696 0 0 1-189.952 76.8z"  horiz-adv-x="1024" />

    
    <glyph glyph-name="help" unicode="&#58956;" d="M457.1648 72.7552A54.8352 54.8352 0 1 1 512 127.5904a54.8352 54.8352 0 0 1-54.8352-54.8352zM512-128a512 512 0 1 0 512 512 512.5632 512.5632 0 0 0-512-512z m0 950.528A438.528 438.528 0 1 1 950.528 384 438.9888 438.9888 0 0 1 512 822.528z m0-623.3088a36.5568 36.5568 0 0 0-36.5568 36.3008v62.1056c0 59.8016 45.7216 105.5232 86.0672 145.8688 29.5936 29.6448 60.2112 60.2112 60.2112 84.5824A110.2848 110.2848 0 0 1 512 638.6688a107.776 107.776 0 0 1-109.7216-108.0832 36.5568 36.5568 0 1 0-73.1136 0 182.8352 182.8352 0 0 0 365.6704-2.5088c0-54.7328-41.472-96.2048-81.6128-136.3456-31.7952-31.744-64.6656-64.5632-64.6656-94.0544v-61.8496a36.608 36.608 0 0 0-36.5568-36.608z"  horiz-adv-x="1024" />

    
    <glyph glyph-name="favorite-fill" unicode="&#58957;" d="M472.832 752.64l9.3696-9.472c8.448-8.448 18.3808-18.1248 29.7984-29.1328l12.9536 13.0048c10.24 9.9328 18.9952 18.6368 26.2144 26.0096A272.7936 272.7936 0 0 0 936.96 758.7328q3.0208-2.8672 5.8368-5.8368a287.1808 287.1808 0 0 0 3.0208-396.9536L512-67.7888l-433.8688 423.68A287.3344 287.3344 0 0 0 81.1008 752.64a272.896 272.896 0 0 0 385.8944 5.8368q2.9184-2.8672 5.8368-5.8368z"  horiz-adv-x="1024" />

    
    <glyph glyph-name="date" unicode="&#58958;" d="M434.3296 386.816m50.2784 0l59.4432 0q50.2784 0 50.2784-50.2784l0 0q0-50.2784-50.2784-50.2784l-59.4432 0q-50.2784 0-50.2784 50.2784l0 0q0 50.2784 50.2784 50.2784ZM672 196.5568m50.2784 0l59.4432 0q50.2784 0 50.2784-50.2784l0 0q0-50.2784-50.2784-50.2784l-59.4432 0q-50.2784 0-50.2784 50.2784l0 0q0 50.2784 50.2784 50.2784ZM672 386.816m50.2784 0l59.4432 0q50.2784 0 50.2784-50.2784l0 0q0-50.2784-50.2784-50.2784l-59.4432 0q-50.2784 0-50.2784 50.2784l0 0q0 50.2784 50.2784 50.2784ZM393.4208 835.4816h244.1216v-97.7408H393.4208zM692.1216 895.8976h98.4576v-158.1568h-98.4576zM240.2304 895.8976h98.56v-158.1568H240.2304zM917.9648 835.4816h-72.8064v-97.7408h108.4416v-174.08H75.0592v174.08h110.592V835.4816H106.0352A106.0352 106.0352 0 0 1 0 729.4976v-751.4624A106.0352 106.0352 0 0 1 106.0352-128h811.9296A106.0352 106.0352 0 0 1 1024-21.9648V729.4976a106.0352 106.0352 0 0 1-106.0352 105.984z m35.84-893.0816H75.0592v547.84h878.5408zM192 196.5568m50.2784 0l59.4432 0q50.2784 0 50.2784-50.2784l0 0q0-50.2784-50.2784-50.2784l-59.4432 0q-50.2784 0-50.2784 50.2784l0 0q0 50.2784 50.2784 50.2784ZM434.3296 196.5568m50.2784 0l59.4432 0q50.2784 0 50.2784-50.2784l0 0q0-50.2784-50.2784-50.2784l-59.4432 0q-50.2784 0-50.2784 50.2784l0 0q0 50.2784 50.2784 50.2784ZM192 386.816m50.2784 0l59.4432 0q50.2784 0 50.2784-50.2784l0 0q0-50.2784-50.2784-50.2784l-59.4432 0q-50.2784 0-50.2784 50.2784l0 0q0 50.2784 50.2784 50.2784Z"  horiz-adv-x="1024" />

    
    <glyph glyph-name="help-fill" unicode="&#58959;" d="M512 896a512 512 0 1 1 512-512A512.5632 512.5632 0 0 1 512 896z m0-878.1312a54.8864 54.8864 0 1 0 54.8352 54.8864A54.8352 54.8352 0 0 0 512 17.8688z m101.2224 373.76c-31.7952-31.744-64.6656-64.5632-64.6656-94.0544v-61.8496a36.5568 36.5568 0 1 0-73.1136 0v61.9008c0 59.8016 45.7216 105.5232 86.0672 145.8688 29.5936 29.6448 60.2112 60.2112 60.2112 84.5824A110.2848 110.2848 0 0 1 512 638.6688a107.776 107.776 0 0 1-109.7216-108.0832 36.5568 36.5568 0 1 0-73.1136 0 182.8352 182.8352 0 0 0 365.6704-2.5088c0-54.7328-41.472-96.2048-81.6128-136.3456z"  horiz-adv-x="1024" />

    
    <glyph glyph-name="image-fill" unicode="&#58960;" d="M889.9072 822.8352H134.0928A134.2464 134.2464 0 0 1 0 688.7936v-609.5872a134.2464 134.2464 0 0 1 134.0928-134.0416h755.8144A134.2464 134.2464 0 0 1 1024 79.2064V688.7936a134.2464 134.2464 0 0 1-134.0928 134.0416zM292.5568 603.4432a73.1648 73.1648 0 1 0-73.1136-73.1648 73.1648 73.1648 0 0 0 73.1136 73.1648z m545.024-111.0016c-87.04 0-105.8816-46.848-129.792-123.2896-16.5888-53.0432-37.2736-119.04-107.776-130.304-64.3072-10.24-114.0224 4.7104-157.952 17.8688-29.0304 8.704-56.32 16.9984-86.6816 17.7152h-1.6384c-70.912 0-122.1632-114.176-136.0384-158.72a36.5568 36.5568 0 0 0-69.7856 21.6576c2.7136 8.704 68.7616 213.5552 209.3568 209.92 39.9872-1.024 73.5232-11.1104 105.8816-20.8896 41.6256-12.4928 77.6192-23.296 125.3376-15.6672 23.3472 3.7888 33.024 27.2384 49.5104 79.9744 21.76 69.5296 54.6304 174.5408 199.68 174.5408a36.5568 36.5568 0 1 0 0-73.1136z"  horiz-adv-x="1024" />

    
    <glyph glyph-name="friends" unicode="&#58961;" d="M512 896a512 512 0 1 1 512-512A512 512 0 0 1 512 896z m140.1856-209.5104A299.9296 299.9296 0 0 0 747.52 621.8752v0.8192a334.4896 334.4896 0 0 0 66.9696-92.16l-163.84-163.84z m-140.9536 34.6624A326.8096 326.8096 0 0 0 624.64 703.0272v-230.8096L397.7728 700.672h0.8192a263.3728 263.3728 0 0 0 112.64 20.48zM276.48 621.1072a300.288 300.288 0 0 0 92.16 67.7376l163.84-163.84-319.7952 1.5872A298.7008 298.7008 0 0 0 276.48 621.1072zM179.6096 384a324.0448 324.0448 0 0 0 18.1248 113.408h230.7584l-227.6352-226.816A268.0832 268.0832 0 0 0 179.6096 384z m191.3856-303.2576A310.8352 310.8352 0 0 0 276.48 145.3056h-0.768a325.4784 325.4784 0 0 0-66.9696 92.9792l163.84 163.84z m137.8304-33.8944a326.8096 326.8096 0 0 0-113.408 18.1248v230.0416h1.5872l225.28-227.6864a281.856 281.856 0 0 0-113.4592-20.48z m236.3392 98.4576a340.992 340.992 0 0 0-92.16-67.7376l-163.84 163.84 320.5632-0.768a314.1632 314.1632 0 0 0-64.5632-95.3344z m81.1008 122.88h-229.9904v2.4064l226.8672 224.4608v0.8192c0-0.8192 0-0.8192 0.768-1.5872l0.8192 0.768a295.2192 295.2192 0 0 0 20.48-113.408 352.3584 352.3584 0 0 0-18.944-113.4592z"  horiz-adv-x="1024" />

    
    <glyph glyph-name="image" unicode="&#58962;" d="M219.4432 530.2784a73.1648 73.1648 0 1 1 73.1136 73.1648 73.1136 73.1136 0 0 1-73.1136-73.1648z m670.72-585.1136H134.0928A134.2464 134.2464 0 0 0 0 79.2064V688.7936a134.2464 134.2464 0 0 0 134.0928 134.0416h755.8144A134.2464 134.2464 0 0 0 1024 688.7936v-609.5872a134.2464 134.2464 0 0 0-134.0928-134.0416zM134.0928 749.7216a61.0304 61.0304 0 0 1-60.928-60.928v-609.5872a61.0304 61.0304 0 0 1 60.928-60.928h755.8144a60.9792 60.9792 0 0 1 60.928 60.928V688.7936a60.9792 60.9792 0 0 1-60.928 60.928z m48.7424-659.4048a36.5056 36.5056 0 0 0-34.9184 47.36c2.7136 8.704 68.7616 213.5552 209.3568 209.92 39.9872-1.024 73.5232-11.1104 105.8816-20.8896 41.6256-12.4928 77.6192-23.296 125.3376-15.6672 23.3472 3.7888 33.024 27.2384 49.5104 79.9744 21.76 69.5296 54.6304 174.5408 199.68 174.5408a36.5568 36.5568 0 1 0 0-73.1136c-87.04 0-105.8816-46.848-129.792-123.2896-16.5888-53.0432-37.2736-119.04-107.776-130.304-64.3072-10.24-114.0224 4.7104-157.952 17.8688-29.0304 8.704-56.32 16.9984-86.6816 17.7152h-1.6384c-70.912 0-122.1632-114.176-136.0384-158.72a36.4544 36.4544 0 0 0-34.9696-25.3952z"  horiz-adv-x="1024" />

    
    <glyph glyph-name="lessen" unicode="&#58963;" d="M476.16 419.84H35.84a35.84 35.84 0 0 1-35.84-35.84 35.84 35.84 0 0 1 35.84-35.84h952.32a35.84 35.84 0 0 1 35.84 35.84 35.84 35.84 0 0 1-35.84 35.84h-440.32"  horiz-adv-x="1024" />

    
    <glyph glyph-name="mail" unicode="&#58964;" d="M908.1856 768H115.8144A115.9168 115.9168 0 0 1 0 652.2368v-536.4736A115.9168 115.9168 0 0 1 115.8144 0h792.3712A115.9168 115.9168 0 0 1 1024 115.7632V652.2368A115.9168 115.9168 0 0 1 908.1856 768zM962.56 115.7632A54.3744 54.3744 0 0 0 908.1856 61.44H115.8144A54.3744 54.3744 0 0 0 61.44 115.7632V652.2368A54.3744 54.3744 0 0 0 115.8144 706.56h792.3712A54.3744 54.3744 0 0 0 962.56 652.2368zM845.4144 613.4272l-326.0416-238.336c-16.6912-16.64-43.7248-16.64-62.5664 2.048L177.664 613.4272a36.5568 36.5568 0 1 1-47.3088-55.808l276.9408-234.24a115.8656 115.8656 0 0 1 82.2784-34.048 112.9472 112.9472 0 0 1 80.2304 32.8192l324.8128 237.2096a36.5568 36.5568 0 1 1-49.2032 54.0672z"  horiz-adv-x="1024" />

    
    <glyph glyph-name="lock" unicode="&#58965;" d="M512 274.2784a36.5568 36.5568 0 0 1-36.5568-36.5568V128a36.5568 36.5568 0 0 1 73.1136 0v109.7216a36.5568 36.5568 0 0 1-36.5568 36.5568zM877.7216 493.7216h-73.1648V605.696c0 171.0592-155.136 290.304-294.4512 290.304-142.8992 0-290.6624-108.3904-290.6624-289.792v-112.64H146.2784A109.8752 109.8752 0 0 1 36.5568 384v-402.2784A109.8752 109.8752 0 0 1 146.2784-128h731.4432a109.8752 109.8752 0 0 1 109.7216 109.7216V384a109.8752 109.8752 0 0 1-109.7216 109.7216zM292.5568 606.208c0 135.6288 110.592 216.6272 217.5488 216.6272 104.4992 0 221.3376-92.8256 221.3376-217.1392v-111.9744H292.5568z m621.7216-624.64a36.5568 36.5568 0 0 0-36.5568-36.5568H146.2784a36.608 36.608 0 0 0-36.5568 36.5568V384a36.608 36.608 0 0 0 36.5568 36.5568h731.4432a36.5568 36.5568 0 0 0 36.5568-36.5568z"  horiz-adv-x="1024" />

    
    <glyph glyph-name="mail-fill" unicode="&#58966;" d="M908.1856 768H115.8144A115.9168 115.9168 0 0 1 0 652.2368v-536.4736A115.9168 115.9168 0 0 1 115.8144 0h792.3712A115.9168 115.9168 0 0 1 1024 115.7632V652.2368A115.9168 115.9168 0 0 1 908.1856 768z m-13.568-208.64l-324.8128-237.2096a112.9472 112.9472 0 0 0-80.2304-32.8192 115.8656 115.8656 0 0 0-82.2784 34.048L130.3552 557.6192a36.5568 36.5568 0 1 0 47.3088 55.808l279.1424-236.288c18.8416-18.688 46.08-18.688 62.5664-2.048l326.0416 238.336a36.5568 36.5568 0 1 0 49.2032-54.0672z"  horiz-adv-x="1024" />

    
    <glyph glyph-name="map" unicode="&#58967;" d="M512 896h-9.0112c-215.8592-4.6592-389.12-176.1792-389.12-387.0208 0-4.5568 0-9.1136 0.256-13.6192 5.12-128 77.7216-271.8208 197.12-417.6896a1680.5888 1680.5888 0 0 1 168.96-177.6128l17.3568-15.36L512-128l14.4384 12.4416a1682.2784 1682.2784 0 0 1 186.5216 193.0752c119.3984 145.92 192.2048 289.792 197.12 417.6896 0 4.608 0.256 9.1136 0.256 13.6704C910.336 722.688 732.16 896 512 896z m326.4512-397.6704v-0.3584c-4.0448-105.6768-66.56-235.52-180.8896-374.9376A1612.8 1612.8 0 0 0 512-31.8976 1610.9056 1610.9056 0 0 0 366.5408 122.88C252.2112 262.6048 189.44 392.2944 185.5488 497.92v10.9568a308.224 308.224 0 0 0 92.5184 220.16A329.984 329.984 0 0 0 504.1152 824.32h8.192c179.968 0 326.3488-141.6192 326.3488-315.4432 0-3.7376-0.0512-7.1168-0.2048-10.5472zM512 711.0656A199.168 199.168 0 1 1 711.168 512 199.168 199.168 0 0 1 512 711.0656z m0-326.656A127.488 127.488 0 1 0 639.488 512 127.6416 127.6416 0 0 0 512 384.4096z"  horiz-adv-x="1024" />

    
    <glyph glyph-name="phone" unicode="&#58968;" d="M783.0528 896H240.9472a90.368 90.368 0 0 1-90.368-90.368v-843.264A90.368 90.368 0 0 1 240.9472-128h542.1056a90.368 90.368 0 0 1 90.368 90.368V805.632A90.368 90.368 0 0 1 783.0528 896z m18.688-933.632a18.7392 18.7392 0 0 0-18.688-18.688H240.9472a18.7392 18.7392 0 0 0-18.688 18.688V805.632A18.7392 18.7392 0 0 0 240.9472 824.32h542.1056a18.7392 18.7392 0 0 0 18.688-18.688zM512 144.2816a61.44 61.44 0 0 1 0-122.88h0.5632a61.44 61.44 0 1 1-0.5632 122.88zM601.7536 751.1552H422.2464c-16.9472 0-30.72-16.0768-30.72-35.84s13.7728-35.84 30.72-35.84h179.5072c16.9472 0 30.72 16.0256 30.72 35.84s-13.7728 35.84-30.72 35.84z"  horiz-adv-x="1024" />

    
    <glyph glyph-name="qq" unicode="&#58969;" d="M512 896a512 512 0 1 1 512-512A512 512 0 0 1 512 896z m256.768-672.6656c-18.8928-16.5888-43.3152 53.5552-47.2576 42.496-8.6528-25.9584-12.5952-43.3152-38.6048-71.68-1.536-1.536 29.952-13.3632 38.6048-36.1984s25.2416-58.3168-82.688-70.144c-63.0272-6.2976-108.6976 33.1264-112.64 33.1264a36.864 36.864 0 0 0-13.4144 0h-14.9504c-1.5872 0-22.8352-33.1264-116.5824-33.1264-72.448 0-91.3408 44.9024-76.3904 70.144 14.9504 24.4224 38.6048 32.256 35.4304 36.1984a188.1088 188.1088 0 0 0-35.4304 59.0848 81.5616 81.5616 0 0 0-3.9424 13.4144c-2.3552 10.24-22.8352-58.3168-44.9024-42.5472-21.248 15.7696-19.712 55.9104-5.5296 94.5152s50.432 76.3904 50.432 84.2752c1.5872 30.72-3.1744 36.2496 0 44.1344 7.0656 18.1248 14.9504 11.008 14.9504 20.48 0 118.1184 88.2176 214.2208 198.5024 214.2208s198.5024-96.1024 198.5024-214.2208c0-4.7616 11.8272 0 17.3568-20.48a207.616 207.616 0 0 0 0.768-44.1344c-0.768-11.008 30.72-25.1904 46.4896-84.2752s-0.8192-88.9856-8.704-95.2832z"  horiz-adv-x="1024" />

    
    <glyph glyph-name="play-fill" unicode="&#58970;" d="M512 896a512 512 0 1 1 512-512A512.5632 512.5632 0 0 1 512 896z m167.424-580.3008l-187.1872-120.2688a85.1456 85.1456 0 0 0-46.08-13.4656 85.1968 85.1968 0 0 0-85.1968 85.1968V505.344a85.3504 85.3504 0 0 0 85.1968 85.248A84.992 84.992 0 0 0 491.52 577.4336l187.136-117.76a85.248 85.248 0 0 0 0.6656-143.8208z"  horiz-adv-x="1024" />

    
    <glyph glyph-name="play" unicode="&#58971;" d="M512 896a512 512 0 1 1 512-512A512.5632 512.5632 0 0 1 512 896z m0-952.32a440.32 440.32 0 1 0 440.32 440.32 440.832 440.832 0 0 0-440.32-440.32zM678.7584 459.52L491.52 577.4336a84.992 84.992 0 0 1-45.4144 13.1584A85.3504 85.3504 0 0 1 360.96 505.344v-238.1824a85.1968 85.1968 0 0 1 85.248-85.1968 85.1456 85.1456 0 0 1 46.08 13.4656l187.1872 120.2688a85.248 85.248 0 0 1-0.6656 143.8208z m-32.2048-74.9568a13.4656 13.4656 0 0 0-5.888-8.5504L453.5808 256a13.568 13.568 0 0 0-7.3728-2.1504 12.9024 12.9024 0 0 0-9.5744 3.9424 12.7488 12.7488 0 0 0-3.9936 9.5744V505.344a13.568 13.568 0 0 0 13.5168 13.568 14.1312 14.1312 0 0 0 7.2704-2.0992l187.0848-117.76a14.8992 14.8992 0 0 0 4.2496-4.1472 13.568 13.568 0 0 0 1.792-10.3424z"  horiz-adv-x="1024" />

    
    <glyph glyph-name="pic" unicode="&#58972;" d="M530.8928 317.0304l29.952-52.736h132.3008L596.2752 424.96l-65.3824-107.9296zM410.368 476.16a42.3424 42.3424 0 0 1-42.1376 42.5472h-0.3584a42.3936 42.3936 0 0 1-42.5472-42.1888V476.16a42.3936 42.3936 0 0 1 42.1888-42.5472h0.3584a42.3424 42.3424 0 0 1 42.496 42.1888zM403.3024 263.4752h145.7152L475.7504 389.5296l-72.448-126.0544zM512 896a512 512 0 1 1 512-512A512 512 0 0 1 512 896z m243.4048-636.4672a50.0736 50.0736 0 0 0-49.6128-50.3808H319.7952a49.5616 49.5616 0 0 0-49.6128 50.3808V509.2352a50.6368 50.6368 0 0 0 49.6128 50.432h385.9968a50.0736 50.0736 0 0 0 49.6128-50.432z"  horiz-adv-x="1024" />

    
    <glyph glyph-name="QQspace" unicode="&#58973;" d="M512 896a512 512 0 1 1 512-512A512 512 0 0 1 512 896z m163.84-630.1696l29.952-174.08h-1.5872c-9.472 8.704-35.4304 18.1248-48.0768 25.2416-33.0752 17.3056-66.1504 33.8432-99.2256 51.2-11.8272 6.2976-22.8352 11.776-34.6624 18.0736-2.3552 1.5872-7.8848 7.1168-11.8272 6.3488l-7.0656-4.7616-30.72-15.7184c-35.4816-18.944-70.912-35.4816-107.1616-54.3744-14.1312-7.8848-32.256-20.48-48.0256-25.1904l37.0176 212.6848a173.0048 173.0048 0 0 0-27.5456 26.7776 601.7536 601.7536 0 0 1-51.2 47.2576l-21.2992 20.48A343.04 343.04 0 0 0 215.04 436.7872a179.2 179.2 0 0 0-18.1248 16.5376 315.1872 315.1872 0 0 1 37.8368 6.2976c17.3056 3.9424 33.8432 3.1232 50.3808 7.0656 23.6544 5.5296 48.0768 4.7616 70.0928 10.24 13.4144 3.1744 51.2 3.1744 59.0848 8.704a151.6544 151.6544 0 0 1 10.24 19.6608c7.1168 14.1824 14.1824 28.3648 22.0672 43.3152 22.0672 42.5472 44.1344 85.8624 64.6144 129.1776 0.768-0.768 0 0 0.768-1.536a45.056 45.056 0 0 0 7.8848-15.0016c7.0656-13.3632 13.3632-27.5456 21.248-41.728l67.7376-133.888a797.7472 797.7472 0 0 0 86.6816-12.6464c23.6032-5.4784 47.2576-4.7104 70.0928-10.24 13.3632-3.1232 51.968-3.1232 59.8528-8.6528-12.5952-9.4208-20.48-23.6032-32.3072-32.3072-8.6528-6.2976-14.9504-15.7184-22.8352-22.016-23.6032-17.3568-43.3152-40.96-63.7952-60.672-7.0656-7.0656-37.0176-30.72-37.7856-39.3728a109.3632 109.3632 0 0 0 7.0656-30.72l-196.1472 14.9504v0.8192h0.8192a72.5504 72.5504 0 0 0 15.7184 11.008c12.5952 7.8848 24.4224 16.5376 37.0176 25.1904 33.1264 22.0672 64.6144 46.4896 96.9216 69.3248 8.6528 6.2976 28.3648 17.3568 33.8432 25.1904a18.4832 18.4832 0 0 1 2.3552 15.7696c-2.3552 7.1168-13.3632 4.7104-22.8352 4.7104h-65.3824c-6.2976-3.9424-41.728-0.768-51.968-0.768l-129.1776-1.5872c-10.24 0-46.4896 3.1744-52.7872-0.768a157.2352 157.2352 0 0 0 37.8368-4.7104c14.9504-3.1744 30.72-2.4064 44.8512-6.3488l15.7696-0.768c23.6544-5.5296 51.2-5.5296 74.8544-11.008 14.9504-3.1744 30.72-2.3552 44.9024-6.2976 7.0656-1.5872 14.1824 0.768 18.8928-3.1744h-1.5872c-13.3632-11.8272-37.7856-20.48-54.3232-29.952-39.424-24.3712-81.92-46.4384-121.344-70.8608-8.6528-5.5296-23.6032-14.1824-27.5456-22.8352-3.1744-6.2976-1.5872-20.48 3.9424-22.8352h15.7184l278.8864 12.5952v3.1232"  horiz-adv-x="1024" />

    
    <glyph glyph-name="round-close" unicode="&#58974;" d="M512-128a512 512 0 1 0 512 512 512.5632 512.5632 0 0 0-512-512z m0 950.528A438.528 438.528 0 1 1 950.528 384 438.9888 438.9888 0 0 1 512 822.528z m51.5072-440.32l158.1056 156.416a36.5568 36.5568 0 1 1-51.2 52.0192L512 434.2272 355.8912 590.6432A36.5568 36.5568 0 1 1 304.128 539.0336l155.6992-156.2112-156.9792-155.2896a36.5568 36.5568 0 1 1 51.2-52.0192l157.44 155.4944 158.72-159.0272a36.5568 36.5568 0 0 1 51.712 51.6608z"  horiz-adv-x="1024" />

    
    <glyph glyph-name="round-add-fill" unicode="&#58975;" d="M877.755849 746.159312a516.00937 516.00937 0 0 1-727.143847 0 511.998535 511.998535 0 0 1 363.649055-874.156381A511.844272 511.844272 0 0 1 877.755849 21.843619a510.404485 510.404485 0 0 1 0 724.16143zM771.314454 347.338318h-220.338829v-220.39025a36.765989 36.765989 0 0 0-73.480557 0V347.338318H257.104818a36.765989 36.765989 0 0 0 0 73.480557h220.39025V641.209125a36.765989 36.765989 0 0 0 73.480557 0v-220.39025H771.314454a36.765989 36.765989 0 0 0 0-73.480557z"  horiz-adv-x="1028" />

    
    <glyph glyph-name="none" unicode="&#58976;" d="M14.080034 60.800883c0-78.509231 225.905963-142.27879 504.884986-142.27879S1023.747647-17.861887 1023.747647 60.800883s-225.803604 142.329969-504.782627 142.329969-504.884986-63.871917-504.884986-142.329969zM827.37221 156.762297l-217.41018-190.84806-7.830451 369.464239 231.228623 137.109668zM603.001629-30.247306l-405.699268 118.480359V225.138003l342.032069-100.66992c22.467766 157.888513 40.943537 219.508536 54.864339 186.241912s16.633312-147.089655 8.905219-341.162019z m-5.885633 371.460235l-108.858628 23.696072L481.245787 442.189927V573.51632l341.162019-95.142543h11.668908zM204.928094 438.453829l283.329274-78.560411V575.563497L204.928094 438.453829zM919.597526 292.234224L836.430967 461.740465v-147.089655zM487.387318 354.929014a4.759686 4.759686 0 0 0-5.117942 4.606148V565.634689a5.117942 5.117942 0 0 0 9.928807 0v-205.741271a5.117942 5.117942 0 0 0-4.810865-5.117942zM532.425208 125.54285l-409.844802 125.49194 76.462055 185.371862 398.073535-101.847047zM839.501732 480.420954a5.117942 5.117942 0 0 1-5.885633 2.917227h-0.307077L489.434494 578.276006a1.995997 1.995997 0 0 1-3.070765 0L199.349538 441.115159a4.503789 4.503789 0 0 1-5.117942-3.019586L117.8719 252.82607a3.173124 3.173124 0 0 1 0-3.838457c0.87005-2.047177 2.047177-2.917227 2.917227-2.917227L194.641031 223.500262v-139.924537a6.039172 6.039172 0 0 1 3.838456-5.117942l408.002343-118.992153a4.45261 4.45261 0 0 1 1.381844-0.716512h5.578557a3.787277 3.787277 0 0 1 1.586562 1.893639l222.272224 190.182727a6.090351 6.090351 0 0 1 2.047177 3.736098v149.699806l77.280925-22.007151h0.870051a2.968406 2.968406 0 0 1 2.968406 1.535382 4.094354 4.094354 0 0 1 2.047177 3.736098V307.025076zM488.257368 569.421967l333.229208-93.095367-225.189451-136.08608-382.310273 97.855053zM202.010867 430.265122L286.763988 408.820944l305.438783-78.150975-62.029458-199.241485-401.451376 122.83061z m2.558971-343.823349v134.038903l326.93414-99.902229h0.92123c1.944818 0 3.991995 1.177127 3.991995 2.968406L593.072821 307.025076l11.771267-338.142433z m409.435367-111.622317l-11.617729 356.97646 226.16186 136.444336v-310.198469z m298.58074 318.284818L839.501732 314.548451V454.677705l72.930675-151.695803zM921.388806 883.458892c-7.216298 9.877628-55.069057-0.87005-76.769132-33.368982-5.885633-9.826449-12.897214-40.175845-7.93281-33.215444C849.737617 835.503775 873.075432 824.756097 890.681153 839.291052c14.586135 12.538958 36.18385 36.18385 30.298217 44.474917zM954.092455 895.99785a32.754829 32.754829 0 0 1-7.88163-0.87005c-1.177127 0-3.224304-1.177127-7.06276-2.047177a205.638913 205.638913 0 0 1-19.601719-6.346248 14.381417 14.381417 0 0 1-10.235884 2.507792 94.937826 94.937826 0 0 1-66.533247-38.231027c-2.917227-6.14153-12.897214-34.44375-7.88163-37.360978h2.047176a1.177127 1.177127 0 0 1 0.716512 0 1.330665 1.330665 0 0 1 0.409436 1.84246c5.885633 8.80286 15.353826 9.621731 25.333813 11.668908a46.82917 46.82917 0 0 1 28.404578 9.928807c0.87005 0 36.439748 31.78242 30.96355 45.498505 5.527377 1.893639 11.46419 3.684918 18.015156 5.117942a68.478065 68.478065 0 0 0 7.011581 2.047177 29.684064 29.684064 0 0 1 7.06276 0.92123z m-64.383711-54.045468a48.876347 48.876347 0 0 0-25.58971-8.905219 38.947539 38.947539 0 0 1-25.589711-9.877628 116.689079 116.689079 0 0 0 8.90522 26.664478A85.009018 85.009018 0 0 0 910.641127 885.352531l-0.358256-0.358256a23.286636 23.286636 0 0 0 4.043175-0.358256 133.066494 133.066494 0 0 1-56.55326-43.553687l3.838456-2.917227a115.819029 115.819029 0 0 0 57.832746 43.400149c2.303074-5.629736-13.716085-25.58971-29.735244-39.612872zM894.51961 813.701342c34.085494-54.710801 34.955544-119.094512 2.303074-154.561851a125.543119 125.543119 0 0 0-40.943537-26.715657c4.759686 25.58971-1.433024 56.757978-13.204291 72.572418a23.030739 23.030739 0 0 1-15.916799 10.59414 32.191856 32.191856 0 0 1-26.664479-11.720087 49.951115 49.951115 0 0 1-17.810438-40.278204 47.340964 47.340964 0 0 1 24.207866-35.825595l0.614153-0.614153a59.368128 59.368128 0 0 1 43.758405-2.047177c-15.353826-58.139822-85.469633-87.875065-93.70952-90.792292l2.047177-4.862045a202.31225 202.31225 0 0 1 66.533247 42.837175A95.961414 95.961414 0 0 1 854.855559 626.794097a112.594726 112.594726 0 0 1 45.600863 29.17227c33.880777 36.746824 33.880777 103.177712-1.433023 160.703381z m-41.864766-182.659353l-0.614154-1.074768a55.939107 55.939107 0 0 0-42.274201 0.614153l-1.074768 1.84246c-17.042747 10.798858-20.881204 23.133098-20.881204 31.424164a48.415732 48.415732 0 0 0 15.865621 36.746824 31.8336 31.8336 0 0 0 22.877201 10.491781 20.471768 20.471768 0 0 0 13.25547-8.85404 98.622744 98.622744 0 0 0 12.846035-71.139394zM95.608852 55.836479c-0.87005-9.928808-42.018304-21.597716-71.139395-7.93281-9.928808 3.838457-26.664478 22.518945-20.471768 19.601718 17.810438-7.011581 30.349397 8.905219 49.899935 7.011581 16.019159-2.917227 42.325381-10.850037 42.325381-18.680489zM111.62801 59.060783a134.857774 134.857774 0 0 1-17.503361 2.558971c-10.235884 7.267478-32.089497 11.975984-38.794001 12.641317a42.837175 42.837175 0 0 1-25.333814-3.838457 31.372985 31.372985 0 0 0-24.566122-2.047177c-4.043174 2.047177-5.117942-0.87005-5.117942-0.87005-2.917227-4.708507 15.353826-19.601718 22.518945-22.518945a87.005015 87.005015 0 0 1 31.475344-5.783274 144.786581 144.786581 0 0 1 38.231027 6.397427c5.117942 2.047177 7.011581 5.117942 7.011581 7.93281a6.243889 6.243889 0 0 1-0.614153 2.507792c3.787277-0.511794 7.574554-1.125947 11.310652-1.995997z m-20.062333-3.121945c0-0.92123-0.92123-1.79128-3.838456-3.838456a77.280925 77.280925 0 0 0-63.61602-2.047177 67.966271 67.966271 0 0 0-16.633312 13.716085 31.628882 31.628882 0 0 1 21.290639 4.094353A58.037463 58.037463 0 0 0 51.338653 71.599741a122.83061 122.83061 0 0 0 32.959547-9.468193 144.377146 144.377146 0 0 1-21.546536-1.074768 81.528817 81.528817 0 0 0-34.443751 2.047177l-2.047176-5.117942a87.516809 87.516809 0 0 1 36.235029-2.047177 133.066494 133.066494 0 0 0 28.916373 0.716512 2.098356 2.098356 0 0 0 0.153538-0.716512z"  horiz-adv-x="1024" />

    
    <glyph glyph-name="round-selected-fill" unicode="&#58977;" d="M512 896a512 512 0 1 1 512-512A512.5632 512.5632 0 0 1 512 896z m245.76-427.9808L465.1008 172.032s0-0.256-0.256-0.3072a33.5872 33.5872 0 0 0-7.936-5.12 35.1744 35.1744 0 0 0-3.84-2.5088 36.608 36.608 0 0 0-27.5456 0c-1.4336 0.6144-2.56 1.8944-3.9936 2.6624a36.096 36.096 0 0 0-7.8848 5.12 1.6896 1.6896 0 0 1 0 0.3072h-0.3072l-144.4352 148.0704a36.5568 36.5568 0 0 0 52.4288 51.2l118.016-121.2928 266.6496 269.5168a36.5568 36.5568 0 1 0 51.968-51.2z"  horiz-adv-x="1024" />

    
    <glyph glyph-name="round-add" unicode="&#58978;" d="M512-125.7472a509.7472 509.7472 0 1 0 361.9328 870.4 508.2112 508.2112 0 0 0 0-721.0496A509.6448 509.6448 0 0 0 512-125.7472z m0 946.3808a437.0432 437.0432 0 0 1-310.4256-128 435.2 435.2 0 0 1 0-617.3184 440.32 440.32 0 0 1 620.8512 0 435.2 435.2 0 0 1 0 617.3184 437.0944 437.0944 0 0 1-310.4256 128z m256-400.0256h-219.392V640a36.608 36.608 0 0 1-73.1648 0v-219.392H256a36.608 36.608 0 0 1 0-73.1648h219.4432V128a36.608 36.608 0 0 1 73.1648 0v219.4432H768a36.608 36.608 0 0 1 0 73.1648z"  horiz-adv-x="1024" />

    
    <glyph glyph-name="round-lessen-fill" unicode="&#58979;" d="M873.984 744.5504a513.792 513.792 0 0 1-724.0192 0 509.7984 509.7984 0 0 1 362.0864-870.4 509.6448 509.6448 0 0 1 361.9328 149.248 508.2112 508.2112 0 0 1 0 721.0496zM768 347.4432H256a36.608 36.608 0 0 0 0 73.1648h512a36.608 36.608 0 0 0 0-73.1648z"  horiz-adv-x="1024" />

    
    <glyph glyph-name="round-lessen" unicode="&#58980;" d="M873.984 744.5504a513.792 513.792 0 0 1-724.0192 0 509.7984 509.7984 0 0 1 362.0864-870.4 509.6448 509.6448 0 0 1 361.9328 149.248 508.2112 508.2112 0 0 1 0 721.0496z m-51.5584-669.184a440.32 440.32 0 0 0-620.8512 0 435.2 435.2 0 0 0 0 617.3184 440.32 440.32 0 0 0 620.8 0 435.2 435.2 0 0 0 0-617.3184zM548.608 347.4432H768a36.608 36.608 0 0 1 0 73.1648H256a36.608 36.608 0 0 1 0-73.1648h219.4432"  horiz-adv-x="1024" />

    
    <glyph glyph-name="round-close-fill" unicode="&#58981;" d="M512 896a512 512 0 1 1 512-512A512.5632 512.5632 0 0 1 512 896z m209.92-672.3584a36.5568 36.5568 0 1 0-51.7632-51.6608l-158.72 159.0272-157.184-155.4944a36.5568 36.5568 0 1 0-51.2 52.0192l156.9792 155.2896L304.128 539.0336a36.5568 36.5568 0 1 0 51.7632 51.6096L512 434.2272l158.208 156.6208a36.5568 36.5568 0 1 0 51.2-52.0192l-158.1056-156.416z"  horiz-adv-x="1024" />

    
    <glyph glyph-name="search" unicode="&#58982;" d="M472.32 890.624a406.8864 406.8864 0 1 1 228.096-743.8848l1.2288-1.7408 192.2048-245.248a35.84 35.84 0 0 1 28.2624-13.7216 35.84 35.84 0 0 1 28.16 57.6512l-192.2048 245.76a29.184 29.184 0 0 1-2.3552 2.6624A406.784 406.784 0 0 1 472.32 890.624z m0-742.0928a335.2064 335.2064 0 1 0 335.2064 335.2064A335.616 335.616 0 0 0 472.32 148.48z"  horiz-adv-x="1024" />

    
    <glyph glyph-name="round-selected" unicode="&#58983;" d="M512-128a512 512 0 1 0 512 512 512.5632 512.5632 0 0 0-512-512z m0 950.528A438.528 438.528 0 1 1 950.528 384 438.9888 438.9888 0 0 1 512 822.528z m245.76-302.7456a36.5056 36.5056 0 0 1-51.712-0.3072l-266.7008-269.5168-118.016 121.2928a36.5568 36.5568 0 0 1-52.4288-51.2l144.0256-148.0192h0.3072a1.6896 1.6896 0 0 0 0-0.3072 36.096 36.096 0 0 1 7.8848-5.12c1.4336-0.768 2.56-2.048 3.9936-2.6624a36.608 36.608 0 0 1 27.5456 0 35.1744 35.1744 0 0 1 3.84 2.5088 33.5872 33.5872 0 0 1 7.936 5.12l0.256 0.3072L757.76 468.0192a36.6592 36.6592 0 0 1 0 51.7632z"  horiz-adv-x="1024" />

    
    <glyph glyph-name="shipping-address" unicode="&#58984;" d="M512 134.375405q304.537406 288.694715 304.639617 456.984978a304.639617 304.639617 0 0 1-609.279234 0q0-168.494685 304.639617-456.984978zM364.765184 591.104856A147.234816 147.234816 0 1 0 512 443.87004a147.285921 147.285921 0 0 0-147.234816 147.234816zM1016.257524-76.792334L879.959275 202.652293a35.773818 35.773818 0 0 1-32.145331 20.084444h-144.93507a35.773818 35.773818 0 0 1 0-71.547637h122.653092l101.444328-207.89699H97.023706l100.984379 207.89699H314.22189a35.773818 35.773818 0 0 1 0 71.547637H175.623896a35.773818 35.773818 0 0 1-32.196437-20.186655L7.691371-76.894545a35.773818 35.773818 0 0 1 32.196437-51.105455h944.224384a35.773818 35.773818 0 0 1 32.145332 51.463193z"  horiz-adv-x="1024" />

    
    <glyph glyph-name="round" unicode="&#58985;" d="M512-128a512 512 0 1 0 512 512 512.5632 512.5632 0 0 0-512-512z m0 950.8352A438.8352 438.8352 0 1 1 950.8352 384 439.3472 439.3472 0 0 1 512 822.8352z"  horiz-adv-x="1024" />

    
    <glyph glyph-name="share" unicode="&#58986;" d="M877.2096 329.1648v-381.4912H71.68v742.4h232.2944v71.68H46.08a46.08 46.08 0 0 1-46.08-46.08v-793.6a46.08 46.08 0 0 1 46.08-46.08h856.7296a46.08 46.08 0 0 1 46.08 46.08v407.0912zM1013.76 674.7136l-199.68 199.68a35.84 35.84 0 0 1-50.688-50.688l140.8512-140.8512H697.856a416.3584 416.3584 0 0 1-415.8976-415.8976v-68.9664a423.0656 423.0656 0 0 1 3.4816-53.1456h83.456a336.8448 336.8448 0 0 0-4.3008 53.1456v68.9664a333.6192 333.6192 0 0 0 333.2608 333.2608h190.464l-125.184-125.184a35.84 35.84 0 0 1 50.688-50.688l199.68 199.68a35.84 35.84 0 0 1 0.256 50.688z"  horiz-adv-x="1024" />

    
    <glyph glyph-name="servise" unicode="&#58987;" d="M915.046707 514.8672h-1.024a405.1968 405.1968 0 0 1-803.84 0h-1.024A108.9536 108.9536 0 0 1 0.000307 405.9136v-148.1728A109.0048 109.0048 0 0 1 108.953907 148.48h175.4624V514.8672h-102.4a333.6704 333.6704 0 0 0 659.5584 0h-102.4v-443.6992a34.4576 34.4576 0 0 0-34.4064-34.4064v-0.768a109.5168 109.5168 0 0 1-103.6288 74.24h-148.48a109.568 109.568 0 1 1 0-219.136h148.992a109.5168 109.5168 0 0 1 103.6288 74.24v-0.768a106.7008 106.7008 0 0 1 106.5984 106.5984V148.48h103.168A109.0048 109.0048 0 0 1 1024.000307 257.7408V405.9136a108.9536 108.9536 0 0 1-108.9536 108.9536z m-702.3104-71.68V220.16H108.953907a37.376 37.376 0 0 0-37.2736 37.5808V405.9136a37.3248 37.3248 0 0 0 37.2736 37.2736z m389.12-480.1536H452.659507a37.888 37.888 0 1 0 0 75.776h148.992a37.888 37.888 0 0 0 0-75.776zM952.320307 257.7408a37.376 37.376 0 0 0-37.2736-37.3248h-103.7824V443.1872h103.7824a37.3248 37.3248 0 0 0 37.2736-37.2736z"  horiz-adv-x="1024" />

    
    <glyph glyph-name="siet-fill" unicode="&#58988;" d="M824.549063 688.947763a28.408898 28.408898 0 0 0 14.434791 3.890228 28.971957 28.971957 0 0 0 25.286478-14.485979l80.517471-139.075631a29.074331 29.074331 0 0 0-8.445888-38.339215l-3.020045-1.893927-20.884379-12.028993M582.740715 492.388903l-2.20105 1.27968a119.726868 119.726868 0 1 1 46.068483-165.027543 120.033992 120.033992 0 0 1-43.867433 163.747863zM956.816796 321.270082l-15.356161 8.804199a421.782554 421.782554 0 0 1 1.586803 103.756461l21.601 12.438491 5.11872 3.020045a90.498975 90.498975 0 0 1 28.255336 120.801799L917.402649 709.115521a90.447788 90.447788 0 0 1-123.463534 33.066933l-21.549812-12.336116a422.908673 422.908673 0 0 1-87.837241 49.293277v26.207848A90.447788 90.447788 0 0 1 594.155461 895.744064L433.47883 896h-5.835341A90.447788 90.447788 0 0 1 343.082229 805.347463v-34.500175A417.175706 417.175706 0 0 1 263.025444 721.963509L225.351662 743.71807l-5.11872 2.508173a90.498975 90.498975 0 0 1-119.010248-35.831042L26.028693 579.91902l-2.55936-4.658035a90.550162 90.550162 0 0 1 35.831042-119.010248L102.502374 431.117821a422.140865 422.140865 0 0 1 0-86.608748l-39.15821-22.52237-5.11872-3.020045A90.498975 90.498975 0 0 1 30.84029 198.164859l80.517471-139.024444A90.447788 90.447788 0 0 1 234.565359 25.817546l38.492776 22.164059a427.515521 427.515521 0 0 1 70.84309-42.024694v-43.304374A90.447788 90.447788 0 0 1 434.349013-127.744064l160.676631-0.255936h5.784154a90.498975 90.498975 0 0 1 84.868382 90.447788v35.831042a422.703924 422.703924 0 0 1 84.305324 47.092227l20.884379-12.08018 4.709223-2.508173a90.447788 90.447788 0 0 1 118.95906 35.831043l75.449937 130.680929 2.508173 4.658036a90.60135 90.60135 0 0 1-35.67748 119.31737z m-276.973957-23.136615a181.049138 181.049138 0 0 0-313.470432 181.253886 180.690827 180.690827 0 0 0 247.029443 66.031492 181.305074 181.305074 0 0 0 66.440989-247.285378z"  horiz-adv-x="1024" />

    
    <glyph glyph-name="square-selected" unicode="&#58989;" d="M776.6016 530.2272a39.3216 39.3216 0 0 1-55.6544-0.3072l-287.1296-290.2016-127.0784 130.56a39.3728 39.3728 0 1 1-56.32-54.8864l155.0848-159.3856 0.3072-0.256c0.3072-0.256 0 0 0-0.3072a36.608 36.608 0 0 1 8.448-5.5808 44.8512 44.8512 0 0 1 4.352-2.816 38.5024 38.5024 0 0 1 14.8992-2.9696 39.5264 39.5264 0 0 1 14.6944 2.8672c1.536 0.6144 2.7136 1.8944 4.1984 2.6624a37.4272 37.4272 0 0 1 8.5504 5.632 3.1232 3.1232 0 0 0 0 0.3072h0.3584l315.3408 318.7712a39.3728 39.3728 0 0 1-0.0512 55.9104zM905.8816-128H118.1696A118.272 118.272 0 0 0 0-9.8304V777.8304A118.272 118.272 0 0 0 118.1696 896h787.712A118.3232 118.3232 0 0 0 1024 777.8304v-787.6608A118.3232 118.3232 0 0 0 905.8816-128zM118.1696 817.2544a39.4752 39.4752 0 0 1-39.3728-39.424v-787.6608a39.4752 39.4752 0 0 1 39.3728-39.424h787.712a39.3728 39.3728 0 0 1 39.3728 39.424V777.8304a39.424 39.424 0 0 1-39.3728 39.424z"  horiz-adv-x="1024" />

    
    <glyph glyph-name="sort-fill" unicode="&#58990;" d="M922.925619 873.984a101.0688 101.0688 0 0 0 78.2848-165.0688l-313.2928-383.1296v-431.7696l-362.0864 164.4544v267.3152L21.856819 710.1952a101.0688 101.0688 0 0 0 79.2576 163.84z"  horiz-adv-x="1024" />

    
    <glyph glyph-name="sort" unicode="&#58991;" d="M922.976819 873.984H101.114419a101.0688 101.0688 0 0 1-79.2576-163.84l303.9744-384.4096v-267.3152l71.68-32.5632v324.8128l-15.36 19.5584L78.074419 754.688a29.44 29.44 0 0 0 4.8128 41.3184 29.7984 29.7984 0 0 0 18.2272 6.2976h821.8624a29.3376 29.3376 0 0 0 22.7328-47.9744l-313.2928-383.1808-16.1792-19.7632v-424.96l71.68-32.5632v431.9232l313.2928 383.1296A101.0688 101.0688 0 0 1 922.976819 873.984z"  horiz-adv-x="1024" />

    
    <glyph glyph-name="square" unicode="&#58992;" d="M905.8304-128H118.1696A118.272 118.272 0 0 0 0-9.8304V777.8304A118.272 118.272 0 0 0 118.1696 896h787.6608A118.272 118.272 0 0 0 1024 777.8304v-787.6608A118.272 118.272 0 0 0 905.8304-128zM118.1696 817.2544a39.5264 39.5264 0 0 1-39.424-39.424v-787.6608a39.4752 39.4752 0 0 1 39.424-39.424h787.6608a39.424 39.424 0 0 1 39.424 39.424V777.8304a39.4752 39.4752 0 0 1-39.424 39.424z"  horiz-adv-x="1024" />

    
    <glyph glyph-name="star-fill" unicode="&#58993;" d="M1022.203699 506.879968a36.761598 36.761598 0 0 1-29.183998 24.575999l-308.940785 47.871998-138.239993 295.577585A36.710398 36.710398 0 0 1 512.968525 895.999949a36.505598 36.505598 0 0 1-33.075199-20.940799l-139.263993-294.911985-309.452784-46.591998A36.607998 36.607998 0 0 1 10.28695 471.91037l224.511989-230.963188-53.503998-325.478384a36.607998 36.607998 0 0 1 53.759998-37.990398l276.479986 152.063992 275.814386-152.985592a36.966398 36.966398 0 0 1 17.715199-4.5568h0.7168a36.556798 36.556798 0 0 1 36.607998 36.556798 37.478398 37.478398 0 0 1-2.304 12.9536l-51.199997 318.463984L1013.8069 469.96477a36.710398 36.710398 0 0 1 8.396799 36.915198z"  horiz-adv-x="1024" />

    
    <glyph glyph-name="square-selected-fill" unicode="&#58994;" d="M905.8816 896H118.1696A118.272 118.272 0 0 1 0 777.8304v-787.6608A118.272 118.272 0 0 1 118.1696-128h787.712A118.3232 118.3232 0 0 1 1024-9.8304V777.8304A118.3232 118.3232 0 0 1 905.8816 896z m-128.9728-421.4784l-315.3408-318.7712h-0.3584a3.1232 3.1232 0 0 1 0-0.3072 37.4272 37.4272 0 0 0-8.5504-5.632c-1.4848-0.768-2.6624-2.048-4.1984-2.6624a39.5264 39.5264 0 0 0-14.6944-2.8672 38.5024 38.5024 0 0 0-14.8992 2.9696 44.8512 44.8512 0 0 0-4.352 2.816 36.608 36.608 0 0 0-8.448 5.5808v0.3072c0 0.3072 0 0-0.3072 0.256L250.2656 315.392a39.3728 39.3728 0 1 0 56.32 54.8864l127.0784-130.56 287.2832 290.2016a39.3728 39.3728 0 1 0 55.9616-55.3984z"  horiz-adv-x="1024" />

    
    <glyph glyph-name="stop-v-fill" unicode="&#58995;" d="M512.3072 896a512 512 0 1 1 512-512 512 512 0 0 1-512 512zM442.7264 218.368c0-24.9856-16.0768-45.2096-35.84-45.2096-19.8144 0-35.84 20.48-35.84 45.2096V519.5264c0 24.9344 16.0256 45.1584 35.84 45.1584 19.7632 0 35.84-20.48 35.84-45.1584z m195.7376 0c0-24.9856-16.0256-45.2096-35.84-45.2096-19.7632 0-35.84 20.48-35.84 45.2096V519.5264c0 24.9344 16.0768 45.1584 35.84 45.1584 19.8144 0 35.84-20.48 35.84-45.1584z"  horiz-adv-x="1024" />

    
    <glyph glyph-name="star-half" unicode="&#58996;" d="M512.763725 800.921554l115.660794-247.603188 13.875199-29.695999 32.409599-5.119999 261.119987-40.294398-191.129591-195.379191-21.657599-22.118398 5.12-30.719999 44.339198-275.097586-231.116789 127.999993-29.644798 16.4352M512.968525 895.999949a36.505598 36.505598 0 0 1-33.075199-20.940799l-139.263993-294.911985-309.452784-46.591998A36.607998 36.607998 0 0 1 10.28695 471.91037l224.511989-230.963188-53.503998-325.478384a36.607998 36.607998 0 0 1 53.759998-37.990398l276.479986 152.063992 275.814386-152.985592a36.966398 36.966398 0 0 1 17.715199-4.5568h0.7168a36.556798 36.556798 0 0 1 36.607998 36.556798 37.478398 37.478398 0 0 1-2.304 12.9536l-51.199997 318.463984L1013.8069 469.96477a36.556798 36.556798 0 0 1-20.479999 61.439997l-309.247985 47.923198-138.239993 295.577585A36.710398 36.710398 0 0 1 512.968525 895.999949z"  horiz-adv-x="1024" />

    
    <glyph glyph-name="star" unicode="&#58997;" d="M512.712525 776.806355l106.444794-227.839989 16.1792-34.662398 37.836798-5.8368L914.581305 471.03997 737.326914 290.099179l-25.292799-25.599999 5.7344-35.839998 40.959997-254.361587-212.684789 117.759994-34.611198 19.199999-34.559998-19.097599-213.09439-117.043194 41.830398 254.207987 5.888 35.839998-25.190399 25.907199-176.844791 181.759991 241.817588 36.454398 37.887998 5.6832 16.332799 34.559998 107.519995 227.276789M512.968525 895.999949a36.505598 36.505598 0 0 1-33.075199-20.940799l-139.263993-294.911985-309.452784-46.591998A36.607998 36.607998 0 0 1 10.28695 471.91037l224.511989-230.963188-53.503998-325.478384a36.607998 36.607998 0 0 1 53.759998-37.990398l276.479986 152.063992 275.814386-152.985592a36.966398 36.966398 0 0 1 17.715199-4.5568h0.7168a36.556798 36.556798 0 0 1 36.607998 36.556798 37.478398 37.478398 0 0 1-2.304 12.9536l-51.199997 318.463984L1013.8069 469.96477a36.556798 36.556798 0 0 1-20.479999 61.439997l-309.247985 47.923198-138.239993 295.577585A36.710398 36.710398 0 0 1 512.968525 895.999949z"  horiz-adv-x="1024" />

    
    <glyph glyph-name="stop-fill" unicode="&#58998;" d="M523.1104 896a512 512 0 1 0-512-512 512 512 0 0 0 512 512z m75.264-361.4208H447.7952a75.3152 75.3152 0 0 1-75.3152-75.264v-150.6304a75.3152 75.3152 0 0 1 75.3152-75.264h150.5792a75.3152 75.3152 0 0 1 75.3152 75.264V459.3152a75.3152 75.3152 0 0 1-75.3152 75.264z"  horiz-adv-x="1035" />

    
    <glyph glyph-name="tick" unicode="&#58999;" d="M701.952 382.5664L977.92 658.2784c12.3904 12.3904 11.1104 33.7408-2.8672 47.7696-14.0288 13.9776-35.4304 15.36-47.8208 2.8672l-275.9168-275.6608-44.9024-44.9024L330.7008 112.64c-12.3904-12.3904-11.1104-33.792 2.9184-47.7696 13.9776-13.9776 35.3792-15.36 47.7696-2.9184l275.712 275.712zM99.0208 400.8448l291.80416-291.80416a26.624 26.624 0 0 0 0-37.65248l-13.0304-13.0304a26.624 26.624 0 0 0-37.65248 0L48.3328 350.1568a35.84 35.84 0 0 0 0 50.68288 35.84 35.84 0 0 0 50.688 0z"  horiz-adv-x="1024" />

    
    <glyph glyph-name="stop-v" unicode="&#59000;" d="M512 896a512 512 0 1 1 512-512A512 512 0 0 1 512 896z m0-952.32a440.32 440.32 0 1 0 440.32 440.32 440.832 440.832 0 0 0-440.32-440.32zM406.5792 564.6848c-19.7632 0-35.84-20.48-35.84-45.1584v-301.1584c0-24.9856 16.0768-45.2096 35.84-45.2096 19.8144 0 35.84 20.48 35.84 45.2096V519.5264c0 24.9344-16.0256 45.1584-35.84 45.1584zM602.368 564.6848c-19.8144 0-35.84-20.48-35.84-45.1584v-301.1584c0-24.9856 16.0256-45.2096 35.84-45.2096 19.7632 0 35.84 20.48 35.84 45.2096V519.5264c0 24.9344-16.0768 45.1584-35.84 45.1584z"  horiz-adv-x="1024" />

    
    <glyph glyph-name="stop" unicode="&#59001;" d="M512 896a512 512 0 1 1 512-512A512 512 0 0 1 512 896z m0-952.32a440.32 440.32 0 1 0 440.32 440.32 440.832 440.832 0 0 0-440.32-440.32zM587.3152 534.5792H436.6848a75.264 75.264 0 0 1-75.264-75.264v-150.6304a75.264 75.264 0 0 1 75.264-75.264h150.6304a75.264 75.264 0 0 1 75.264 75.264V459.3152a75.264 75.264 0 0 1-75.264 75.264z m3.584-225.8944a3.4816 3.4816 0 0 0-3.584-3.584H436.6848a3.584 3.584 0 0 0-3.584 3.584V459.3152a3.584 3.584 0 0 0 3.584 3.584h150.6304a3.584 3.584 0 0 0 3.584-3.584z"  horiz-adv-x="1024" />

    
    <glyph glyph-name="twitter" unicode="&#59002;" d="M512 896a512 512 0 1 1 512-512A512 512 0 0 1 512 896z m252.672-431.5136v-15.7184c0-161.792-122.88-348.16-348.16-348.16a346.88 346.88 0 0 0-187.6992 55.04 265.8304 265.8304 0 0 1 29.2352-1.7408 245.76 245.76 0 0 1 152.0128 52.3776 122.88 122.88 0 0 0-114.3808 84.992 125.3376 125.3376 0 0 1 55.1424 2.1504 122.4704 122.4704 0 0 0-97.024 120.0128V414.72a121.7536 121.7536 0 0 1 55.1424-15.36A122.4192 122.4192 0 0 0 271.36 563.2a347.3408 347.3408 0 0 1 252.0576-128 118.8352 118.8352 0 0 0-3.2768 27.5456 122.4704 122.4704 0 0 0 211.6096 84.0704 246.2208 246.2208 0 0 1 77.4656 29.696 122.88 122.88 0 0 0-53.8112-67.7376 242.8928 242.8928 0 0 1 70.1952 19.3024V527.36a246.7328 246.7328 0 0 0-60.928-63.0272z"  horiz-adv-x="1024" />

    
    <glyph glyph-name="upload" unicode="&#59003;" d="M917.175022 636.426112h-111.865987v-65.686069h111.865987a21.912422 21.912422 0 0 0 21.912422-21.912422v-589.229129a21.912422 21.912422 0 0 0-21.912422-21.912423H106.824978a21.912422 21.912422 0 0 0-21.912422 21.912423V548.827621a21.912422 21.912422 0 0 0 21.912422 21.912422h111.865987V636.426112H106.824978A87.598492 87.598492 0 0 1 19.175289 548.827621v-589.229129A87.598492 87.598492 0 0 1 106.824978-128h810.350044a87.598492 87.598492 0 0 1 87.649689 87.598492V548.827621a87.598492 87.598492 0 0 1-87.649689 87.598491zM284.633021 640.265906a32.766239 32.766239 0 0 1 46.435904 0l137.618203 137.618203v-585.338138h68.450721V786.946022l146.680116-146.680116a32.817436 32.817436 0 1 1 46.435904 46.435904l-199.669268 199.669268a32.868633 32.868633 0 0 1-46.487101 0l-199.669268-199.669268a32.766239 32.766239 0 0 1 0.204789-46.435904z"  horiz-adv-x="1024" />

    
    <glyph glyph-name="visible" unicode="&#59004;" d="M1008.9472 433.3056q-224.4096 332.8-496.9472 332.8Q244.5312 765.9008 23.3984 445.44l-8.3456-12.1344-3.328-5.12a88.2688 88.2688 0 0 1 3.328-93.2352q224.4096-332.8 496.9472-332.8 267.52 0 488.6016 320.4096l8.3456 12.1856 3.328 5.12a88.2688 88.2688 0 0 1-3.328 93.44z m-58.4704-56.8832l-1.5872-2.56-7.3728-10.752c-68.0448-98.56-139.6736-172.9024-212.9408-220.9792-70.144-46.08-141.0048-68.352-216.576-68.352-76.8 0-149.1968 23.2448-220.6208 71.0656-74.7008 49.7152-147.6608 127.3344-216.8832 229.9392a16.5888 16.5888 0 0 0-0.9728 16.7936l1.5872 2.56 7.424 10.8032C150.528 503.5008 222.1568 577.8432 295.424 625.8688c70.144 46.08 141.0048 68.352 216.576 68.352 76.8 0 149.1968-23.2448 220.6208-71.0656 74.7008-49.9712 147.6608-127.3344 216.8832-229.9392a16.5888 16.5888 0 0 0 0.9728-16.7936zM514.4576 571.0848H512a194.816 194.816 0 0 1 0-389.632h5.12a194.816 194.816 0 0 1-2.4064 389.632z m1.536-317.952h-3.1232a123.136 123.136 0 0 0 0 246.272h1.5872a123.136 123.136 0 0 0 1.536-246.272z"  horiz-adv-x="1024" />

    
    <glyph glyph-name="wechat" unicode="&#59005;" d="M559.4112 391.5776a24.2688 24.2688 0 1 1 23.6544-24.8832v0.6144a24.1664 24.1664 0 0 1-23.6544 24.2688zM355.9424 540.2624a28.672 28.672 0 1 1 28.3648-28.9792v0.3072a28.4672 28.4672 0 0 1-28.3648 28.672zM496.64 482.56a28.672 28.672 0 1 1-28.3136 28.9792v-0.3072a28.5184 28.5184 0 0 1 28.3136-28.672zM686.6432 390.4H686.08a24.0128 24.0128 0 1 1 0.8192 0zM512 896a512 512 0 1 1 512-512A512 512 0 0 1 512 896zM430.08 276.48a242.8416 242.8416 0 0 0-64.768 8.6528l-3.4304 1.024-74.24-37.6832L307.2 310.8352l-1.8432 1.1776C256.4608 343.5008 225.28 392.7552 225.28 448.1024 225.28 542.72 316.8256 619.52 430.08 619.52c102.4 0 187.392-63.0272 202.5984-145.152h-8.6528c-102.4 0.3072-186.624-69.888-186.624-156.3136a133.4784 133.4784 0 0 1 6.5536-40.96c-4.608 0-9.1648-0.4608-13.7728-0.4608z m300.6976-74.752l-1.6384-1.024 16.7424-52.224-62.5664 32-2.9696-0.8704a202.7008 202.7008 0 0 0-55.1424-7.3216c-95.6416 0-173.312 64.8192-173.312 144.7424s77.6192 144.7936 173.312 144.7936S798.72 397.0048 798.72 317.0304c0-46.848-26.7776-88.5248-68.0448-115.0464z"  horiz-adv-x="1024" />

    
    <glyph glyph-name="unvisible" unicode="&#59006;" d="M319.6416 364.7488A192.9216 192.9216 0 0 1 329.1136 302.08l62.208 62.208a122.88 122.88 0 0 0 120.9856 120.9856L574.5152 547.84a193.8432 193.8432 0 0 1-60.0576 9.5232H512a194.56 194.56 0 0 1-192.3584-192.6144zM515.9936 239.2064h-4.3008L450.56 178.2272a193.9968 193.9968 0 0 1 61.44-10.7008h5.12a194.56 194.56 0 0 1 181.6576 258.5088l-61.2352-60.9792v-1.1776a123.1872 123.1872 0 0 0-121.5488-124.672zM1008.9472 419.3792a1069.2608 1069.2608 0 0 1-143.36 173.7728l-50.7392-50.7392a996.6592 996.6592 0 0 0 134.6048-163.1232 16.5888 16.5888 0 0 0 0.9728-16.7936l-1.5872-2.56-7.3728-10.752c-67.9936-98.56-139.6224-172.9536-212.8896-221.184-70.144-46.08-141.0048-68.352-216.576-68.352a367.0528 367.0528 0 0 0-148.48 31.2832l-53.76-53.6576a445.44 445.44 0 0 1 202.24-49.1008q267.52 0 488.6016 320.4096l8.3456 12.1856 3.328 5.12a88.3712 88.3712 0 0 1-3.328 93.4912zM166.3488 139.4688l50.7392 50.7392c-48.7936 45.312-96.512 102.4-142.592 170.6496a16.5888 16.5888 0 0 0-0.9728 16.7936l1.5872 2.56 7.424 10.8032C150.528 489.5744 222.1568 563.8656 295.424 611.8912c70.144 46.08 141.0048 68.4032 216.576 68.4032a369.152 369.152 0 0 0 159.0784-35.84l53.4016 53.1456A447.5392 447.5392 0 0 1 512 751.9744q-267.4688 0-488.6016-320.4096l-8.3456-12.1856-3.328-5.12a88.2688 88.2688 0 0 1 3.328-93.2352q73.1136-108.5952 151.296-181.5552zM110.73536 14.29504l763.83232 763.0336 50.65728-50.7136-763.8272-763.0336z"  horiz-adv-x="1024" />

    
    <glyph glyph-name="clock-fill" unicode="&#59007;" d="M512 896a512 512 0 1 1 512-512A512.5632 512.5632 0 0 1 512 896z m182.8352-585.1648H475.4432a36.5056 36.5056 0 0 0-36.608 36.608V640A36.608 36.608 0 1 0 512 640v-256h182.8352a36.608 36.608 0 1 0 0-73.1648z"  horiz-adv-x="1024" />

    
    <glyph glyph-name="siet" unicode="&#59008;" d="M956.816796 321.270082l-15.356161 8.804199a421.782554 421.782554 0 0 1 1.586803 103.756461l21.601 12.438491 5.11872 3.020045a90.498975 90.498975 0 0 1 28.255336 120.801799L917.402649 709.115521a90.447788 90.447788 0 0 1-123.463534 33.066933l-21.549812-12.336116a422.908673 422.908673 0 0 1-87.837241 49.293277v26.207848A90.447788 90.447788 0 0 1 594.155461 895.744064L433.47883 896h-5.835341A90.447788 90.447788 0 0 1 343.082229 805.347463v-34.500175A417.175706 417.175706 0 0 1 263.025444 721.963509L225.351662 743.71807l-5.11872 2.508173a90.498975 90.498975 0 0 1-119.010248-35.831042L26.028693 579.91902l-2.55936-4.658035a90.550162 90.550162 0 0 1 35.831042-119.010248L102.502374 431.117821a422.140865 422.140865 0 0 1 0-86.608748l-39.15821-22.52237-5.11872-3.020045A90.498975 90.498975 0 0 1 30.84029 198.164859l80.517471-139.024444A90.447788 90.447788 0 0 1 234.565359 25.817546l38.492776 22.164059a427.515521 427.515521 0 0 1 70.84309-42.024694v-43.304374A90.447788 90.447788 0 0 1 434.349013-127.744064l160.676631-0.255936h5.784154a90.498975 90.498975 0 0 1 84.868382 90.447788v35.831042a422.703924 422.703924 0 0 1 84.305324 47.092227l20.884379-12.08018 4.709223-2.508173a90.447788 90.447788 0 0 1 118.95906 35.831043l75.449937 130.680929 2.508173 4.658036a90.60135 90.60135 0 0 1-35.67748 119.31737z m-26.105474 188.164159l-2.610547-1.586803-20.782005-11.977805-40.43789-23.341365 5.11872-46.426793a348.072982 348.072982 0 0 0-1.330867-86.045689l-6.807898-48.064784 41.768758-24.16036 15.356161-8.906573a18.888078 18.888078 0 0 0 7.67808-24.262734l-1.330867-2.456986L852.446088 102.59835a18.683329 18.683329 0 0 0-16.379905-9.418445 17.966708 17.966708 0 0 0-7.780454 1.740365l-2.508173 1.330867-19.860635 11.465934-40.130768 23.187803-37.622594-27.078031a352.731017 352.731017 0 0 0-70.024094-39.055836l-44.123369-18.376206v-83.793451a18.939265 18.939265 0 0 0-16.994151-18.785704h-3.020045L434.502574-56.08198a18.836891 18.836891 0 0 0-18.83689 18.836891v88.707423l-40.949763 19.297576a356.570057 356.570057 0 0 0-58.967658 35.012047L277.767358 133.310672l-40.43789-23.290177-38.492777-22.112872a18.376206 18.376206 0 0 0-9.316071-2.55936 18.990452 18.990452 0 0 0-16.431092 9.469633l-80.517471 139.280379a18.836891 18.836891 0 0 0 5.11872 24.672232l2.55936 1.586804 38.339216 22.061684 40.693826 23.238991-5.11872 46.375606a352.32152 352.32152 0 0 0 0 71.969207l4.606848 46.068483L138.333417 493.156711l-43.56031 25.184104A18.836891 18.836891 0 0 0 87.146213 542.501175l1.279681 2.405798 75.091627 129.861935a18.734516 18.734516 0 0 0 16.379905 9.418445 18.47858 18.47858 0 0 0 7.729267-1.689178l2.456986-1.330867 37.110722-21.396251 41.819945-24.16036 38.236841 29.688578a348.072982 348.072982 0 0 0 66.287428 40.949763l40.949763 19.39995V805.449838A18.836891 18.836891 0 0 0 431.431342 824.337916h3.12242l159.448138-0.255936a18.888078 18.888078 0 0 0 18.83689-18.888078V731.27958l44.072182-18.325019a354.420195 354.420195 0 0 0 73.044139-40.949762l37.980905-27.487528 40.335516 23.187803 21.549813 12.387303a18.325019 18.325019 0 0 0 9.316071 2.508173 18.990452 18.990452 0 0 0 16.431092-9.367258l80.517471-139.075631a18.939265 18.939265 0 0 0-5.374657-24.72342zM613.504224 545.572407a180.690827 180.690827 0 0 1-247.029443-66.031492 181.049138 181.049138 0 1 1 313.316871-181.509823 181.305074 181.305074 0 0 1-66.287428 247.541315z m4.197351-211.710273a109.387053 109.387053 0 0 0-189.392652 109.847739 108.977556 108.977556 0 0 0 146.95846 40.949762l2.098675-1.228493a109.796551 109.796551 0 0 0 40.335517-149.569008z"  horiz-adv-x="1024" />

    


  </font>
</defs>
</svg>
